<svg width="72" height="72" viewBox="0 0 72 72" fill="none" xmlns="http://www.w3.org/2000/svg">
<path d="M29.3421 46.0367C25.1921 46.5967 23.8421 47.1567 21.3721 47.6067C18.9021 48.0567 11.1521 50.0767 11.1521 53.5567C11.1521 57.0367 18.2221 59.7367 22.4921 59.7367C26.7621 59.7367 30.4621 60.6367 34.0621 62.7667C37.6621 64.8967 42.7121 64.6867 45.4021 64.4667C48.0921 64.2467 50.3421 60.9867 51.0121 59.9767C51.6821 58.9667 54.8321 57.8267 57.6321 56.1467C60.4421 54.4667 63.6921 50.7567 62.0121 47.2767C60.3321 43.7967 29.3421 46.0367 29.3421 46.0367Z" fill="#80D8FC"/>
<path d="M62.0122 47.2665C61.1122 45.3965 51.7722 45.1765 43.3122 45.3765L25.0322 48.3165C21.0122 48.9665 17.1022 50.1565 13.4122 51.8665C13.3222 52.1465 13.2722 52.4465 13.2722 52.7665C13.2722 53.1865 13.3422 53.6065 13.4822 54.0165C15.4322 56.8965 19.4622 60.0965 25.3722 58.1265C33.2122 55.5165 33.8522 58.9665 39.2222 61.2465C41.0922 62.0365 54.6422 58.0465 57.9722 54.3365C59.6522 52.4665 61.0922 51.2765 62.3122 50.5265C62.5922 49.4665 62.5422 48.3465 62.0222 47.2565L62.0122 47.2665Z" fill="url(#paint0_radial_1044_2594)"/>
<path d="M27.162 47.0968C21.362 47.6068 21.592 48.8668 18.982 49.2868C16.372 49.7068 11.992 50.9668 14.352 54.5068C16.712 58.0468 26.322 57.4568 30.572 56.1868C34.822 54.9268 40.962 57.5368 43.742 59.7268C46.522 61.9168 53.262 58.7968 55.192 55.4368C57.132 52.0668 60.832 50.0168 62.682 49.4868C64.532 48.9568 61.752 45.9268 61.752 45.9268L39.582 46.4768L27.152 47.0968H27.162Z" fill="url(#paint1_radial_1044_2594)"/>
<path d="M38.8222 41.5969C36.2922 41.5969 32.6422 42.3869 27.8722 46.1969C23.1022 50.0069 15.2422 49.9569 15.2422 52.2069C15.2422 54.4569 17.9322 55.7969 22.5922 55.7969C27.2522 55.7969 31.8322 55.2169 36.0422 55.2169C41.2122 55.2169 43.7022 57.3669 47.5222 57.3669C51.3422 57.3669 54.3722 53.2169 54.9322 52.2569C55.4922 51.2969 58.1322 49.5069 59.8722 49.0569C61.6122 48.6069 63.2922 47.5969 61.1622 45.4669C59.0322 43.3369 53.9222 42.4769 52.1222 42.4769C48.8122 42.4769 47.0822 41.5869 38.8222 41.5869V41.5969Z" fill="url(#paint2_linear_1044_2594)"/>
<path d="M59.8822 49.0667C61.6222 48.6167 63.3022 47.6067 61.1722 45.4767C60.8622 45.1667 60.4922 44.8867 60.0822 44.6367C59.7022 44.8267 59.1122 44.9967 58.2622 45.1167C52.1522 45.9867 52.5822 52.5567 47.2522 50.6267C41.9222 48.7067 36.2122 49.2367 27.1622 51.9867C22.9322 53.2767 20.4822 52.0567 19.9522 49.7467C17.3022 50.5167 15.2522 51.0667 15.2522 52.2167C15.2522 54.4667 17.9422 55.8067 22.6022 55.8067C27.2622 55.8067 31.3722 55.2167 35.5822 55.2167C40.7522 55.2167 43.7122 57.3767 47.5222 57.3767C51.3322 57.3767 54.3722 53.2267 54.9322 52.2667C55.4922 51.3167 58.1322 49.5167 59.8722 49.0667H59.8822Z" fill="url(#paint3_radial_1044_2594)"/>
<path d="M47.5322 57.3773C51.3522 57.3773 54.3822 53.2273 54.9422 52.2673C55.5022 51.3173 58.1422 49.5173 59.8822 49.0673C61.6222 48.6173 63.3022 47.6073 61.1722 45.4773C61.1022 45.4073 61.0322 45.3473 60.9622 45.2773C60.0122 47.2673 58.1022 48.4773 56.0422 48.7073C53.0122 49.0473 52.5922 55.1873 48.1222 54.0973C43.6622 53.0073 40.4922 51.4073 33.3622 53.0873C26.2322 54.7673 22.6922 55.1973 20.1622 53.3373C17.6322 51.4873 25.4122 51.1873 26.4922 47.1673C21.7322 50.0373 15.2522 50.1773 15.2522 52.2173C15.2522 54.4673 17.9422 55.8073 22.6022 55.8073C27.2622 55.8073 31.3722 55.2173 35.5822 55.2173C40.7522 55.2173 43.7122 57.3773 47.5222 57.3773H47.5322Z" fill="url(#paint4_radial_1044_2594)"/>
<path d="M37.532 43.8972L38.712 46.3772L41.012 46.8872C41.012 46.8872 45.162 46.2672 46.182 43.1272C46.332 42.6572 46.342 42.2672 46.242 41.9372C44.732 41.7872 42.832 41.6572 40.172 41.6172L37.532 43.9072V43.8972Z" fill="url(#paint5_radial_1044_2594)"/>
<path d="M21.632 52.9872C21.8032 52.9872 21.942 52.8484 21.942 52.6772C21.942 52.506 21.8032 52.3672 21.632 52.3672C21.4608 52.3672 21.322 52.506 21.322 52.6772C21.322 52.8484 21.4608 52.9872 21.632 52.9872Z" fill="url(#paint6_radial_1044_2594)"/>
<path d="M34.0021 44.7968C34.1733 44.7968 34.3121 44.658 34.3121 44.4868C34.3121 44.3156 34.1733 44.1768 34.0021 44.1768C33.8309 44.1768 33.6921 44.3156 33.6921 44.4868C33.6921 44.658 33.8309 44.7968 34.0021 44.7968Z" fill="url(#paint7_radial_1044_2594)"/>
<path d="M29.5322 47.8369C29.6813 47.8369 29.8022 47.716 29.8022 47.5669C29.8022 47.4178 29.6813 47.2969 29.5322 47.2969C29.3831 47.2969 29.2622 47.4178 29.2622 47.5669C29.2622 47.716 29.3831 47.8369 29.5322 47.8369Z" fill="url(#paint8_radial_1044_2594)"/>
<path d="M38.4122 51.8771C38.5061 51.8771 38.5822 51.801 38.5822 51.7071C38.5822 51.6132 38.5061 51.5371 38.4122 51.5371C38.3183 51.5371 38.2422 51.6132 38.2422 51.7071C38.2422 51.801 38.3183 51.8771 38.4122 51.8771Z" fill="url(#paint9_radial_1044_2594)"/>
<path d="M27.7622 53.7471C27.9003 53.7471 28.0122 53.6351 28.0122 53.4971C28.0122 53.359 27.9003 53.2471 27.7622 53.2471C27.6241 53.2471 27.5122 53.359 27.5122 53.4971C27.5122 53.6351 27.6241 53.7471 27.7622 53.7471Z" fill="url(#paint10_radial_1044_2594)"/>
<path d="M36.0421 49.4074C36.136 49.4074 36.2121 49.3313 36.2121 49.2374C36.2121 49.1435 36.136 49.0674 36.0421 49.0674C35.9482 49.0674 35.8721 49.1435 35.8721 49.2374C35.8721 49.3313 35.9482 49.4074 36.0421 49.4074Z" fill="url(#paint11_radial_1044_2594)"/>
<path d="M39.612 48.6571C39.7722 48.6571 39.902 48.5273 39.902 48.3671C39.902 48.207 39.7722 48.0771 39.612 48.0771C39.4519 48.0771 39.322 48.207 39.322 48.3671C39.322 48.5273 39.4519 48.6571 39.612 48.6571Z" fill="url(#paint12_radial_1044_2594)"/>
<path d="M31.882 50.4765C32.0422 50.4765 32.172 50.3466 32.172 50.1865C32.172 50.0263 32.0422 49.8965 31.882 49.8965C31.7219 49.8965 31.592 50.0263 31.592 50.1865C31.592 50.3466 31.7219 50.4765 31.882 50.4765Z" fill="url(#paint13_radial_1044_2594)"/>
<path d="M42.0521 51.5172C42.3006 51.5172 42.5021 51.3157 42.5021 51.0672C42.5021 50.8187 42.3006 50.6172 42.0521 50.6172C41.8035 50.6172 41.6021 50.8187 41.6021 51.0672C41.6021 51.3157 41.8035 51.5172 42.0521 51.5172Z" fill="url(#paint14_radial_1044_2594)"/>
<path d="M46.472 45.4464C46.5659 45.4464 46.642 45.3703 46.642 45.2764C46.642 45.1826 46.5659 45.1064 46.472 45.1064C46.3781 45.1064 46.302 45.1826 46.302 45.2764C46.302 45.3703 46.3781 45.4464 46.472 45.4464Z" fill="url(#paint15_radial_1044_2594)"/>
<path d="M46.5821 48.6568C46.6925 48.6568 46.7821 48.5673 46.7821 48.4568C46.7821 48.3464 46.6925 48.2568 46.5821 48.2568C46.4716 48.2568 46.3821 48.3464 46.3821 48.4568C46.3821 48.5673 46.4716 48.6568 46.5821 48.6568Z" fill="url(#paint16_radial_1044_2594)"/>
<path d="M46.0421 52.5373C46.1139 52.5373 46.1721 52.4791 46.1721 52.4073C46.1721 52.3355 46.1139 52.2773 46.0421 52.2773C45.9703 52.2773 45.9121 52.3355 45.9121 52.4073C45.9121 52.4791 45.9703 52.5373 46.0421 52.5373Z" fill="url(#paint17_radial_1044_2594)"/>
<path d="M50.1121 52.627C50.2501 52.627 50.3621 52.515 50.3621 52.377C50.3621 52.2389 50.2501 52.127 50.1121 52.127C49.974 52.127 49.8621 52.2389 49.8621 52.377C49.8621 52.515 49.974 52.627 50.1121 52.627Z" fill="url(#paint18_radial_1044_2594)"/>
<path d="M49.862 44.207C50.0222 44.207 50.152 44.0771 50.152 43.917C50.152 43.7568 50.0222 43.627 49.862 43.627C49.7019 43.627 49.572 43.7568 49.572 43.917C49.572 44.0771 49.7019 44.207 49.862 44.207Z" fill="url(#paint19_radial_1044_2594)"/>
<path d="M58.262 45.5172C58.3725 45.5172 58.462 45.4276 58.462 45.3172C58.462 45.2067 58.3725 45.1172 58.262 45.1172C58.1516 45.1172 58.062 45.2067 58.062 45.3172C58.062 45.4276 58.1516 45.5172 58.262 45.5172Z" fill="url(#paint20_radial_1044_2594)"/>
<path d="M53.1122 49.2273C53.1785 49.2273 53.2322 49.1736 53.2322 49.1073C53.2322 49.041 53.1785 48.9873 53.1122 48.9873C53.0459 48.9873 52.9922 49.041 52.9922 49.1073C52.9922 49.1736 53.0459 49.2273 53.1122 49.2273Z" fill="url(#paint21_radial_1044_2594)"/>
<path d="M53.9521 46.307C54.1178 46.307 54.2521 46.1727 54.2521 46.007C54.2521 45.8413 54.1178 45.707 53.9521 45.707C53.7864 45.707 53.6521 45.8413 53.6521 46.007C53.6521 46.1727 53.7864 46.307 53.9521 46.307Z" fill="url(#paint22_radial_1044_2594)"/>
<path d="M31.4421 52.267C30.9221 52.357 30.7221 52.907 30.1721 52.807C30.3921 52.177 30.7221 52.017 31.4421 52.267Z" fill="#F8AD5C"/>
<path d="M52.6421 51.847C52.4721 51.527 52.2421 51.217 52.6221 50.877C52.7221 50.787 52.7221 50.587 52.7721 50.417C53.2321 50.967 52.7021 51.387 52.6421 51.847Z" fill="#F8AD5C"/>
<path d="M47.1422 43.9668L47.7122 44.3668L47.2522 44.8168C47.1189 44.5968 47.0822 44.3135 47.1422 43.9668Z" fill="#F8AD5C"/>
<path d="M44.3221 49.2366C44.2621 49.2766 44.2021 49.3266 44.1321 49.3566C43.9521 49.4466 43.7421 49.5966 43.5821 49.3866C43.4321 49.1866 43.7021 49.1266 43.7921 49.0166C43.9921 48.7766 44.1521 48.9266 44.2921 49.0966C44.3121 49.1266 44.3121 49.1666 44.3321 49.2366H44.3221Z" fill="#F8AD5C"/>
<path d="M32.5023 49.5068C32.5023 49.7368 32.4923 49.8868 32.5023 50.0368C32.5223 50.1768 32.5723 50.3068 32.6123 50.4368L32.2023 50.6768C32.1823 50.1635 32.2789 49.7735 32.4923 49.5068H32.5023Z" fill="#F8AD5C"/>
<path d="M22.6822 52.4167L23.0422 51.6367L23.1422 51.6767L22.8722 52.6767L22.2122 52.4767L22.2322 52.3767L22.6822 52.4167Z" fill="#F8AD5C"/>
<path d="M34.0222 48.747C34.6022 48.697 34.2522 48.087 34.6422 47.877C34.6922 48.007 34.7922 48.147 34.7722 48.257C34.7322 48.427 34.6322 48.587 34.5322 48.747C34.4022 48.947 34.2422 48.917 34.0222 48.747Z" fill="#F8AD5C"/>
<path d="M54.3921 43.627C54.6321 43.797 54.6921 44.037 54.5121 44.207C54.3621 44.357 54.1021 44.367 53.8921 44.127L54.3921 43.637V43.627Z" fill="#F8AD5C"/>
<path d="M29.5922 45.9765L30.0422 45.6465L30.4322 46.2765L30.5622 46.2165C30.4622 46.2365 30.3222 46.3065 30.2622 46.2665C30.0622 46.1165 29.8722 45.9665 29.5422 46.2265L29.5822 45.9665L29.5922 45.9765Z" fill="#F8AD5C"/>
<path d="M49.7822 46.7266L49.3722 47.3166L49.0522 47.0766C49.2522 46.7632 49.4922 46.6466 49.7722 46.7266H49.7822Z" fill="#F8AD5C"/>
<path d="M60.4722 46.877L59.7522 45.917C60.1122 45.997 60.3822 45.957 60.4022 46.347C60.4022 46.497 60.5222 46.637 60.5822 46.777L60.4722 46.877Z" fill="#F8AD5C"/>
<path d="M49.9221 48.707C50.1688 49.2004 50.1688 49.5104 49.9221 49.637V48.707Z" fill="#F8AD5C"/>
<path d="M59.3223 45.4772C59.1223 45.3372 58.9823 45.2872 58.9423 45.1972C58.8623 44.9972 58.8323 44.7872 58.7923 44.5772C58.7823 44.5072 58.8123 44.4372 58.8223 44.3672C58.8923 44.4072 59.0123 44.4372 59.0323 44.5072C59.1323 44.7872 59.2023 45.0672 59.3123 45.4872L59.3223 45.4772Z" fill="#F8AD5C"/>
<path d="M32.4222 44.9169C32.2489 44.5702 32.2689 44.2936 32.4822 44.0869C32.6955 44.3202 32.6755 44.5969 32.4222 44.9169Z" fill="#F8AD5C"/>
<path d="M26.3622 53.7666C26.3922 54.0966 26.2222 54.2866 25.9922 54.4366C25.9222 54.4866 25.7922 54.4866 25.7122 54.4666C25.6622 54.4466 25.6122 54.3066 25.6322 54.2566C25.6722 54.1866 25.7722 54.1466 25.8522 54.1266C26.0822 54.0666 26.0822 54.0766 26.3622 53.7666Z" fill="#F8AD5C"/>
<path d="M47.4822 50.8765C47.1522 50.4365 47.2122 50.2865 47.8122 49.9365L47.4822 50.8765Z" fill="#F8AD5C"/>
<path d="M35.1821 50.5468C35.2221 50.4868 35.2221 50.4568 35.2421 50.4468C35.4721 50.3268 35.6721 50.3468 35.8021 50.5868C35.8221 50.6168 35.7921 50.7168 35.7521 50.7468C35.4921 50.9268 35.3521 50.7368 35.1921 50.5468H35.1821Z" fill="#F8AD5C"/>
<path d="M49.8422 50.167C49.7922 50.457 49.7922 50.677 49.5122 50.737C49.4422 50.757 49.3022 50.737 49.3022 50.717C49.2822 50.627 49.2722 50.487 49.3122 50.447C49.4522 50.337 49.6122 50.277 49.8422 50.167Z" fill="#F8AD5C"/>
<path d="M44.1121 52.9267C43.6621 53.2167 43.5721 53.1867 43.3821 52.6367L44.1121 52.9267Z" fill="#F8AD5C"/>
<path d="M57.1323 49.5773C57.1323 49.6873 57.1423 49.8073 57.1323 49.9173C57.1123 50.0173 57.0723 50.1173 57.0323 50.2173C57.0323 50.2173 56.8923 50.2073 56.8823 50.1773C56.8423 50.0773 56.7823 49.9473 56.8123 49.8473C56.8423 49.7173 56.9423 49.6073 57.0123 49.4873L57.1423 49.5873L57.1323 49.5773Z" fill="#F8AD5C"/>
<path d="M44.1121 49.7471L44.4621 50.3971C44.0321 50.4471 43.9121 50.2571 44.1121 49.7471Z" fill="#F8AD5C"/>
<path d="M52.6322 44.3569C52.5822 44.2769 52.4922 44.1869 52.5022 44.1169C52.5222 44.0169 52.6622 43.8469 52.6822 43.8569C52.8222 43.9169 52.9422 44.0169 53.0722 44.1069L52.6322 44.3569Z" fill="#F8AD5C"/>
<path d="M61.8122 47.3168L61.3422 47.5568C61.2622 47.4668 61.1022 47.3368 61.3122 47.2068C61.4822 47.1068 61.7322 46.9368 61.8022 47.3368L61.8222 47.3168H61.8122Z" fill="#F8AD5C"/>
<path d="M56.2921 48.0268C56.3521 48.0768 56.4421 48.1268 56.4621 48.1868C56.4821 48.2868 56.4621 48.3968 56.4621 48.5068C56.3721 48.5068 56.2621 48.5168 56.1921 48.4768C56.0221 48.3768 56.0621 48.2468 56.1921 48.1368C56.2321 48.0968 56.2821 48.0568 56.3221 48.0068H56.3021L56.2921 48.0268Z" fill="#F8AD5C"/>
<path d="M25.9222 51.6973L26.2622 52.0573C26.1822 52.1173 26.1222 52.1973 26.0622 52.2073C25.9722 52.2173 25.8722 52.1773 25.7822 52.1573L25.9222 51.6973Z" fill="#F8AD5C"/>
<path d="M42.6821 50.9866C42.8221 51.0166 42.9021 51.0066 42.9521 51.0466C43.0621 51.1366 43.1521 51.2566 43.2421 51.3566C43.2421 51.3566 43.1821 51.4366 43.1721 51.4366C43.0321 51.3766 42.8921 51.3166 42.7721 51.2366C42.7221 51.2066 42.7221 51.1066 42.6821 50.9766V50.9866Z" fill="#F8AD5C"/>
<path d="M51.8623 54.6868C51.9156 54.4402 52.089 54.2968 52.3823 54.2568L51.8623 54.6868Z" fill="#F8AD5C"/>
<path d="M43.1222 42.8269C43.0122 42.6969 42.9122 42.6169 42.8822 42.5169C42.8722 42.4769 42.9822 42.3469 43.0422 42.3369C43.1222 42.3369 43.2822 42.4169 43.2822 42.4569C43.2822 42.5569 43.2022 42.6569 43.1222 42.8269Z" fill="#F8AD5C"/>
<path d="M47.0822 51.7266C47.3222 52.1066 47.0222 52.2766 46.7822 52.4666L47.0822 51.7266Z" fill="#F8AD5C"/>
<path d="M52.9823 53.5569L52.7223 53.8469C52.6523 53.7869 52.5223 53.7069 52.5323 53.6669C52.5523 53.5669 52.6323 53.4669 52.7123 53.4169C52.7523 53.3969 52.8523 53.4869 52.9823 53.5569Z" fill="#F8AD5C"/>
<path d="M56.3122 47.5066C56.2922 47.2566 56.4422 47.1966 56.6122 47.3066C56.7722 47.4066 56.9022 47.5666 57.1222 47.7866L56.2922 47.4866H56.3122V47.5066Z" fill="#F8AD5C"/>
<path d="M60.4121 47.847C60.1021 47.887 60.0521 47.667 59.9221 47.417C60.2721 47.437 60.4221 47.567 60.3921 47.867H60.4121V47.847Z" fill="#F8AD5C"/>
<path d="M47.7922 47.0468C47.4622 47.1868 47.4022 46.9568 47.2322 46.7168C47.4655 46.7635 47.6522 46.8735 47.7922 47.0468Z" fill="#F8AD5C"/>
<path d="M47.2422 42.7668C47.1822 42.7668 47.1122 42.8068 47.0622 42.7868C46.9622 42.7468 46.8722 42.6768 46.7822 42.6068C46.7822 42.6068 46.8122 42.5068 46.8222 42.5068C46.9322 42.5268 47.0422 42.5468 47.1522 42.5768C47.2122 42.5968 47.2622 42.6268 47.3222 42.6468L47.2422 42.7568V42.7668Z" fill="#F8AD5C"/>
<path d="M46.8722 56.5771C46.8722 56.5771 46.9422 56.6371 46.9422 56.6471C46.9222 56.7871 46.8922 56.9371 46.8622 57.0771C46.8222 57.0671 46.7722 57.0771 46.7522 57.0471C46.6322 56.8671 46.6322 56.7071 46.8722 56.5771Z" fill="#F8AD5C"/>
<path d="M36.6221 50.5374L36.3621 51.0274C36.3221 50.7974 36.1921 50.5274 36.6221 50.5374Z" fill="#F8AD5C"/>
<path d="M28.6321 50.1273C28.6321 50.1273 28.6521 50.0473 28.6821 50.0273C28.8121 49.9373 28.9421 49.8573 29.0821 49.7773C29.1021 49.8073 29.1421 49.8673 29.1321 49.8773C29.0021 49.9973 28.8621 50.1173 28.7221 50.2373L28.6321 50.1273Z" fill="#F8AD5C"/>
<path d="M55.4923 50.1467C55.4923 50.1467 55.4523 50.1667 55.4423 50.1567C55.3323 50.0667 55.2223 49.9767 55.1123 49.8767C55.1123 49.8767 55.1723 49.7867 55.1823 49.7967C55.3123 49.8667 55.4523 49.9367 55.5823 50.0167L55.5023 50.1467H55.4923Z" fill="#F8AD5C"/>
<path d="M26.9723 51.217C26.9423 51.277 26.9423 51.307 26.9223 51.307C26.7823 51.337 26.6423 51.367 26.5123 51.397C26.5123 51.357 26.4923 51.307 26.5123 51.287C26.6223 51.097 26.7723 51.047 26.9823 51.217H26.9723Z" fill="#F8AD5C"/>
<path d="M48.9523 54.2069L48.3623 54.7369C48.4223 54.3469 48.6923 54.2769 48.8223 54.0869L48.9523 54.2169V54.2069Z" fill="#F8AD5C"/>
<path d="M39.0922 51.4365L39.0422 52.1565C38.7322 51.8165 38.7222 51.6365 39.0922 51.4365Z" fill="#F8AD5C"/>
<path d="M41.1823 48.7471C41.1823 48.9071 41.2023 49.0771 41.1823 49.2371C41.1823 49.2971 41.0523 49.3271 40.9823 49.3771C40.9523 49.2971 40.8623 49.1871 40.8923 49.1371C40.9723 48.9971 41.0923 48.8871 41.2023 48.7671H41.1823V48.7471Z" fill="#F8AD5C"/>
<path d="M59.3022 49.1473L59.6722 48.4873H59.6522L59.8422 48.7273L59.2922 49.1273V49.1473H59.3022Z" fill="#F8AD5C"/>
<path d="M51.9022 53.6569L51.6022 53.8869C51.5722 53.8269 51.4922 53.7369 51.5122 53.6969C51.5522 53.6169 51.6322 53.5469 51.7122 53.4969C51.7322 53.4869 51.8122 53.5769 51.9022 53.6669V53.6569Z" fill="#F8AD5C"/>
<path d="M37.5121 53.2974L37.1921 53.7274C37.1021 53.3874 37.2121 53.2674 37.5121 53.2974Z" fill="#F8AD5C"/>
<path d="M34.3621 43.5166C34.4321 43.5966 34.5021 43.6666 34.5521 43.7466C34.5521 43.7566 34.4621 43.8666 34.4521 43.8566C34.3621 43.7966 34.2821 43.7266 34.2021 43.6566L34.3521 43.5166H34.3621Z" fill="#F8AD5C"/>
<path d="M52.0622 43.7374C51.9622 43.6274 51.8622 43.5274 51.7722 43.4074C51.7722 43.4074 51.8122 43.3474 51.8322 43.3174L52.2122 43.5974L52.0622 43.7374Z" fill="#F8AD5C"/>
<path d="M48.1321 43.8867V44.3867C47.9921 44.2201 47.9921 44.0534 48.1321 43.8867Z" fill="#F8AD5C"/>
<path d="M37.9121 47.0768L38.2921 46.7568C38.3321 46.8268 38.3621 46.8668 38.3621 46.8968C38.3121 47.0868 38.2321 47.2568 37.9121 47.0768Z" fill="#F8AD5C"/>
<path d="M41.2021 48.7571C41.1821 48.6771 41.1421 48.5971 41.1421 48.5171C41.1421 48.4371 41.2021 48.3471 41.2521 48.2771C41.2621 48.2571 41.4021 48.3071 41.4121 48.3271C41.4121 48.4171 41.4121 48.5171 41.3821 48.5871C41.3521 48.6471 41.2621 48.6871 41.1921 48.7271H41.2121L41.2021 48.7571Z" fill="#F8AD5C"/>
<path d="M55.4821 48.9373L55.1621 48.2773C55.5021 48.4573 55.6221 48.6273 55.6321 48.8573L55.4821 48.9373Z" fill="#F8AD5C"/>
<path d="M33.4622 46.0964C33.3822 45.9564 33.3022 45.8764 33.3022 45.7964C33.3022 45.7364 33.3822 45.6664 33.4222 45.6064C33.4822 45.6764 33.5622 45.7464 33.5922 45.8264C33.6122 45.8764 33.5322 45.9464 33.4622 46.0864V46.0964Z" fill="#F8AD5C"/>
<path d="M44.4321 52.6271C44.4821 52.4771 44.4921 52.3671 44.5421 52.3371C44.6221 52.2871 44.7321 52.2971 44.8321 52.2871C44.8021 52.3671 44.7921 52.4771 44.7321 52.5271C44.6721 52.5771 44.5721 52.5871 44.4321 52.6271Z" fill="#F8AD5C"/>
<path d="M23.8321 52.4173C23.7121 52.3973 23.5921 52.3873 23.4721 52.3573C23.4521 52.3573 23.4621 52.2573 23.4521 52.1973H23.8721L23.8321 52.4173Z" fill="#F8AD5C"/>
<path d="M28.7122 46.3769L28.9622 46.0469C29.1422 46.1269 29.1022 46.1969 28.7122 46.3769Z" fill="#F8AD5C"/>
<path d="M38.2821 48.6768L37.9921 49.2968C37.9721 49.0568 38.0687 48.8501 38.2821 48.6768Z" fill="#F8AD5C"/>
<path d="M48.6223 44.8072L49.0423 44.4072L49.1223 44.4872L48.7023 44.9072L48.6123 44.8172L48.6223 44.8072Z" fill="#F8AD5C"/>
<path d="M52.7221 48.3874C52.6921 48.4974 52.6521 48.6074 52.6121 48.7074C52.6121 48.7074 52.4821 48.6674 52.4221 48.6474L52.6021 48.3174L52.7321 48.3774L52.7221 48.3874Z" fill="#F8AD5C"/>
<path d="M44.8721 47.3569L45.2421 46.7969C45.2621 47.0435 45.1387 47.2302 44.8721 47.3569Z" fill="#F8AD5C"/>
<path d="M58.5823 46.707C58.9423 46.927 58.6223 47.057 58.5823 47.237V46.707Z" fill="#F8AD5C"/>
<path d="M55.6522 47.1164L55.9322 47.4064C55.8822 47.4364 55.8022 47.4964 55.7822 47.4764C55.6922 47.4164 55.6122 47.3264 55.5222 47.2464L55.6522 47.1064V47.1164Z" fill="#F8AD5C"/>
<path d="M52.8322 47.6367L52.5322 48.1167C52.5055 47.9101 52.6088 47.7567 52.8422 47.6567H52.8222L52.8322 47.6367Z" fill="#F8AD5C"/>
<path d="M22.2722 54.5267L22.7622 54.3467C22.6489 54.5333 22.4856 54.5933 22.2722 54.5267Z" fill="#F8AD5C"/>
<path d="M19.0121 51.0771L19.5021 51.3871C19.1421 51.5071 19.0621 51.3071 18.9421 51.1771L19.0121 51.0771Z" fill="#F8AD5C"/>
<path d="M56.5922 44.917C56.5222 44.757 56.0922 44.637 56.5522 44.377L56.5922 44.917Z" fill="#F8AD5C"/>
<path d="M50.3222 50.6865L50.3022 51.1965C50.0622 50.9765 50.0422 50.8265 50.3222 50.6865Z" fill="#F8AD5C"/>
<path d="M50.6422 53.8565C50.5322 53.9165 50.4322 53.9765 50.3122 54.0165L50.2322 53.8765C50.3222 53.8065 50.4322 53.7465 50.5322 53.6865L50.6322 53.8565H50.6422Z" fill="#F8AD5C"/>
<path d="M26.5723 53.1566L26.8323 52.7666C26.8323 52.7666 26.9223 52.8266 26.9223 52.8366C26.8523 52.9666 26.7723 53.0966 26.6923 53.2266L26.5723 53.1566Z" fill="#F8AD5C"/>
<path d="M52.9221 46.7967L52.9821 46.3867C53.1021 46.4934 53.0821 46.6301 52.9221 46.7967Z" fill="#F8AD5C"/>
<path d="M53.7522 45.7168C53.7822 45.8368 53.8322 45.9168 53.8122 45.9668C53.7922 46.0268 53.7122 46.0568 53.6622 46.1068C53.6222 46.0468 53.5522 45.9768 53.5622 45.9268C53.5722 45.8668 53.6522 45.8168 53.7522 45.7168Z" fill="#F8AD5C"/>
<path d="M54.5721 45.8873L54.1521 45.8373C54.2854 45.6573 54.4221 45.6806 54.5621 45.9073L54.5821 45.8873H54.5721Z" fill="#F8AD5C"/>
<path d="M58.7623 45.8072L58.5823 45.3872C58.6523 45.3672 58.7123 45.3472 58.7123 45.3572C58.7623 45.4972 58.8023 45.6372 58.8523 45.7872L58.7623 45.8172V45.8072Z" fill="#F8AD5C"/>
<path d="M49.4821 45.5371C49.3821 45.4971 49.2721 45.4571 49.1821 45.3971C49.1821 45.3971 49.2221 45.2971 49.2421 45.2471L49.5521 45.3971L49.4921 45.5371H49.4821Z" fill="#F8AD5C"/>
<path d="M44.5122 45.4274C44.4322 45.3574 44.3522 45.3074 44.3622 45.2874C44.3922 45.2074 44.4522 45.1374 44.5022 45.0674C44.5422 45.0974 44.6222 45.1374 44.6222 45.1674C44.6022 45.2474 44.5622 45.3274 44.5122 45.4274Z" fill="#F8AD5C"/>
<path d="M52.9921 44.7869L52.8021 44.9569C52.7421 44.8869 52.6721 44.8169 52.6421 44.7369C52.6321 44.7069 52.7221 44.6369 52.7621 44.5869L52.9921 44.7869Z" fill="#F8AD5C"/>
<path d="M48.7522 52.6169L49.1922 52.5869C49.0589 52.7402 48.9122 52.7502 48.7522 52.6169Z" fill="#F8AD5C"/>
<path d="M47.6723 48.8372L47.0923 48.9972C47.2623 48.7172 47.4123 48.6272 47.6723 48.8372Z" fill="#F8AD5C"/>
<path d="M26.5923 50.6166L26.9423 50.5166L26.9823 50.6466L26.6423 50.7766L26.5923 50.6166Z" fill="#F8AD5C"/>
<path d="M31.7922 49.4669L31.6522 49.6569C31.6522 49.6569 31.5522 49.5769 31.5522 49.5469C31.5522 49.4769 31.5922 49.4069 31.6222 49.3369L31.8022 49.4669H31.7922Z" fill="#F8AD5C"/>
<path d="M39.7321 50.677C39.6921 50.757 39.6721 50.797 39.6521 50.817C39.5821 50.877 39.5121 50.927 39.4421 50.987C39.4221 50.957 39.3821 50.897 39.3821 50.887C39.4621 50.807 39.5421 50.737 39.6321 50.667C39.6421 50.667 39.6721 50.667 39.7321 50.667V50.677Z" fill="#F8AD5C"/>
<path d="M49.3623 55.4365C49.0723 55.2565 49.1023 55.0365 49.2823 54.6865L49.3423 55.4565L49.3623 55.4365Z" fill="#F8AD5C"/>
<path d="M32.3821 52.6967L32.7721 52.3867C32.7621 52.4867 32.7721 52.5567 32.7421 52.5867C32.6521 52.6667 32.5421 52.7267 32.4421 52.7867L32.3821 52.6967Z" fill="#F8AD5C"/>
<path d="M41.5422 51.8269L41.2422 51.7369L41.2922 51.5869L41.5922 51.6969L41.5522 51.8269H41.5422Z" fill="#F8AD5C"/>
<path d="M49.3523 55.4565C49.5623 55.4365 49.7523 55.4265 49.8123 55.7465C49.5823 55.7265 49.4623 55.5965 49.3623 55.4365L49.3423 55.4565H49.3523Z" fill="#F8AD5C"/>
<path d="M51.4121 51.5071C51.3021 51.5871 51.2321 51.6371 51.1621 51.6771C51.1621 51.6771 51.0721 51.5871 51.0821 51.5671C51.1121 51.4871 51.1821 51.4071 51.2321 51.3271L51.4221 51.5071H51.4121Z" fill="#F8AD5C"/>
<path d="M51.1821 48.6767L51.2721 48.0967L51.3921 48.1167L51.3221 48.6967H51.1921L51.1821 48.6767Z" fill="#F8AD5C"/>
<path d="M52.1221 52.2365L52.4621 52.1465L52.5021 52.2665L52.1721 52.3865L52.1221 52.2365Z" fill="#F8AD5C"/>
<path d="M43.4223 54.3369C43.3223 54.3669 43.2323 54.4069 43.2223 54.3869C43.1623 54.3269 43.1323 54.2369 43.0823 54.1569C43.1323 54.1569 43.2023 54.1169 43.2423 54.1469C43.3023 54.1769 43.3423 54.2469 43.4223 54.3369Z" fill="#F8AD5C"/>
<path d="M29.1822 53.1973L29.2022 53.5473C29.2022 53.5473 29.0922 53.5473 29.0922 53.5273C29.0722 53.4173 29.0622 53.3173 29.0522 53.2073H29.1822V53.1973Z" fill="#F8AD5C"/>
<path d="M34.6923 53.747L34.3823 53.927L34.3223 53.847L34.6123 53.627L34.6923 53.757V53.747Z" fill="#F8AD5C"/>
<path d="M43.6523 53.457L43.8423 53.997C43.6023 53.827 43.5223 53.707 43.6523 53.457Z" fill="#F8AD5C"/>
<path d="M29.9722 45.3068L30.1322 45.0068C30.1322 45.0068 30.2222 45.0568 30.2222 45.0668C30.1822 45.1668 30.1322 45.2668 30.0822 45.3768L29.9722 45.3168V45.3068Z" fill="#F8AD5C"/>
<path d="M52.8523 47.6567V47.1267L52.9423 47.0967C52.9723 47.1767 53.0523 47.2767 53.0323 47.3367C53.0023 47.4467 52.9023 47.5367 52.8323 47.6367H52.8523V47.6567Z" fill="#F8AD5C"/>
<path d="M42.3121 47.1272L42.1621 46.9972C42.2421 46.9472 42.3121 46.8972 42.3921 46.8672C42.4121 46.8572 42.4621 46.8872 42.4921 46.9072L42.3121 47.1372V47.1272Z" fill="#F8AD5C"/>
<path d="M54.5021 46.7168V47.0768H54.4121V46.7168H54.5021Z" fill="#F8AD5C"/>
<path d="M55.2921 47.2968C55.2121 47.3568 55.1421 47.4268 55.1221 47.4168C55.0421 47.3668 54.9821 47.3068 54.9121 47.2368C54.9521 47.1968 55.0021 47.1168 55.0221 47.1268C55.1121 47.1568 55.1821 47.2168 55.2921 47.2868V47.2968Z" fill="#F8AD5C"/>
<path d="M28.3223 48.5264L28.0723 48.2464L28.2123 48.1064L28.4123 48.4364L28.3223 48.5164V48.5264Z" fill="#F8AD5C"/>
<path d="M53.0622 43.2664L52.8822 43.4264C52.8422 43.3664 52.7822 43.3064 52.7722 43.2364C52.7722 43.1964 52.8422 43.1464 52.8922 43.1064L53.0722 43.2764L53.0622 43.2664Z" fill="#F8AD5C"/>
<path d="M19.6821 50.1371C19.6321 50.1571 19.5821 50.1971 19.5321 50.1871C19.5021 50.1871 19.4821 50.1071 19.4521 50.0671C19.5021 50.0571 19.5621 50.0371 19.6121 50.0371C19.6321 50.0371 19.6421 50.0871 19.6721 50.1371H19.6821Z" fill="#F8AD5C"/>
<path d="M54.5321 50.4273C54.4621 50.3673 54.3921 50.3273 54.3921 50.2873C54.3921 50.2273 54.4321 50.1673 54.4821 50.1273C54.4921 50.1173 54.6121 50.1673 54.6121 50.1973C54.6121 50.2673 54.5721 50.3373 54.5421 50.4273H54.5321Z" fill="#F8AD5C"/>
<path d="M50.7023 51.2168L50.8223 51.4968L50.6723 51.5568L50.6123 51.2468L50.7023 51.2168Z" fill="#F8AD5C"/>
<path d="M41.7921 51.6273C41.7521 51.5273 41.7021 51.4573 41.7221 51.4273C41.7621 51.3673 41.8321 51.3273 41.8921 51.2773C41.9121 51.3173 41.9621 51.3773 41.9521 51.4073C41.9321 51.4673 41.8721 51.5273 41.7921 51.6173V51.6273Z" fill="#F8AD5C"/>
<path d="M48.6921 48.6168L48.4821 48.7668C48.4821 48.7668 48.3921 48.6668 48.4021 48.6468C48.4421 48.5868 48.4921 48.5368 48.5521 48.5068C48.5721 48.5068 48.6221 48.5568 48.6821 48.6068L48.6921 48.6168Z" fill="#F8AD5C"/>
<path d="M42.1023 47.8965L42.3523 47.9765C42.3523 47.9765 42.3223 48.0665 42.3123 48.0665C42.2223 48.0465 42.1423 48.0265 42.0623 47.9965L42.1023 47.8965Z" fill="#F8AD5C"/>
<path d="M29.3722 47.9866L29.4822 48.1266C29.4822 48.1266 29.3922 48.2166 29.3522 48.2066C29.3122 48.2066 29.2722 48.1366 29.2422 48.0966L29.3822 47.9766L29.3722 47.9866Z" fill="#F8AD5C"/>
<path d="M37.0322 48.1465C37.0422 48.2265 37.0722 48.2965 37.0522 48.3365C37.0322 48.3765 36.9722 48.4065 36.9222 48.4365C36.9022 48.3865 36.8622 48.3265 36.8822 48.2865C36.8922 48.2365 36.9622 48.2065 37.0322 48.1565V48.1465Z" fill="#F8AD5C"/>
<path d="M24.7523 49.3265L24.4723 49.5865L24.3523 49.4865L24.5923 49.1865L24.7523 49.3265Z" fill="#F8AD5C"/>
<path d="M39.4723 54.0871L39.3623 53.7871L39.5123 53.7471L39.5623 54.0671L39.4723 54.0871Z" fill="#F8AD5C"/>
<path d="M24.1221 54.1665L24.3621 53.8965L24.4321 53.9465L24.2321 54.2365L24.1221 54.1565V54.1665Z" fill="#F8AD5C"/>
<path d="M18.2522 53.1066C18.3522 53.0766 18.4622 53.0466 18.5622 53.0166L18.5922 53.1166L18.2622 53.1766L18.2422 53.1066H18.2522Z" fill="#F8AD5C"/>
<path d="M18.4822 51.5869C18.5722 51.6869 18.6322 51.7269 18.6322 51.7669C18.6322 51.8369 18.5922 51.9069 18.5722 51.9769C18.5322 51.9369 18.4722 51.8969 18.4622 51.8569C18.4522 51.7969 18.4622 51.7269 18.4922 51.5869H18.4822Z" fill="#F8AD5C"/>
<path d="M46.2822 51.5768L46.3722 51.4268C46.3722 51.4268 46.4822 51.4768 46.4922 51.5068C46.4922 51.5468 46.4522 51.6068 46.4322 51.6568L46.2822 51.5868V51.5768Z" fill="#F8AD5C"/>
<path d="M49.5221 52.1973C49.5921 52.3073 49.6621 52.3673 49.6621 52.4173C49.6621 52.4773 49.5921 52.5373 49.5421 52.5973C49.5121 52.5273 49.4621 52.4573 49.4521 52.3873C49.4521 52.3473 49.4821 52.2973 49.5221 52.1973Z" fill="#F8AD5C"/>
<path d="M45.9922 43.5371C45.9322 43.5671 45.8722 43.5971 45.8622 43.5971C45.8222 43.5371 45.7822 43.4671 45.7522 43.3971C45.7822 43.3871 45.8322 43.3471 45.8422 43.3571C45.8922 43.4071 45.9322 43.4671 45.9922 43.5371Z" fill="#F8AD5C"/>
<path d="M56.5621 46.917V47.447H56.5721C56.3021 47.197 56.3021 47.177 56.5721 46.927H56.5521L56.5621 46.917Z" fill="#F8AD5C"/>
<path d="M32.5722 47.4565C32.5322 47.3965 32.4622 47.3465 32.4722 47.3065C32.4722 47.2565 32.5522 47.2265 32.5922 47.1865C32.6322 47.2265 32.7022 47.2665 32.6922 47.3065C32.6922 47.3565 32.6222 47.3965 32.5722 47.4665V47.4565Z" fill="#F8AD5C"/>
<path d="M55.9523 46.1265L55.8223 46.0865C55.8623 46.0165 55.9023 45.9565 55.9423 45.8965C55.9423 45.8965 56.0023 45.9165 56.0423 45.9365L55.9523 46.1365V46.1265Z" fill="#F8AD5C"/>
<path d="M46.0122 55.347L45.9022 55.497C45.9022 55.497 45.8222 55.407 45.8322 55.377C45.8622 55.317 45.9222 55.257 45.9722 55.207L46.0222 55.347H46.0122Z" fill="#F8AD5C"/>
<path d="M48.2421 46.7168L48.1321 46.5868L48.2821 46.4668C48.2821 46.4668 48.3321 46.5368 48.3221 46.5568C48.3121 46.6068 48.2721 46.6568 48.2421 46.7168Z" fill="#F8AD5C"/>
<path d="M48.9922 46.4065C49.0322 46.4865 49.0722 46.5365 49.0622 46.5665C49.0422 46.6065 48.9822 46.6265 48.9422 46.6565C48.9222 46.6265 48.8822 46.5865 48.8922 46.5565C48.9022 46.5065 48.9422 46.4665 48.9922 46.3965V46.4065Z" fill="#F8AD5C"/>
<path d="M39.1622 47.1068L39.0722 47.1868C39.0722 47.1868 39.0222 47.0968 39.0122 47.0468C39.0122 47.0468 39.0322 47.0168 39.0522 47.0068L39.1722 47.1068H39.1622Z" fill="#F8AD5C"/>
<path d="M54.5522 45.9065L54.8822 45.9765L54.8422 46.0765L54.5722 45.8965L54.5522 45.9165V45.9065Z" fill="#F8AD5C"/>
<path d="M27.3423 48.5465L27.2223 48.6465C27.2223 48.6465 27.1523 48.5365 27.1723 48.5165C27.2023 48.4765 27.2623 48.4565 27.3123 48.4365L27.3523 48.5565L27.3423 48.5465Z" fill="#F8AD5C"/>
<path d="M40.0423 48.4365C40.1023 48.4665 40.1623 48.4765 40.1623 48.4965C40.1623 48.5465 40.1423 48.6065 40.1323 48.6565C40.1023 48.6365 40.0423 48.6265 40.0423 48.6065C40.0323 48.5565 40.0423 48.5065 40.0423 48.4465V48.4365Z" fill="#F8AD5C"/>
<path d="M58.0021 48.377L58.1421 48.607L58.0921 48.637L57.8821 48.467L58.0021 48.377Z" fill="#F8AD5C"/>
<path d="M58.9622 48.6468C58.8922 48.6668 58.8222 48.6968 58.7522 48.7068L58.7122 48.6168C58.7722 48.5768 58.8322 48.5468 58.8922 48.5068L58.9522 48.6468H58.9622Z" fill="#F8AD5C"/>
<path d="M57.1922 48.837L57.0722 48.947C57.0722 48.947 56.9722 48.867 56.9722 48.827C56.9722 48.787 57.0422 48.747 57.0822 48.707L57.1922 48.827V48.837Z" fill="#F8AD5C"/>
<path d="M49.1122 48.2274L49.0022 48.2674C48.9822 48.2174 48.9622 48.1674 48.9622 48.1074C48.9622 48.1074 49.0222 48.0774 49.0622 48.0674L49.1222 48.2274H49.1122Z" fill="#F8AD5C"/>
<path d="M45.2023 48.237L45.1123 48.367C45.1123 48.367 45.0623 48.267 45.0623 48.227C45.0623 48.187 45.1223 48.157 45.1523 48.127L45.2123 48.237H45.2023Z" fill="#F8AD5C"/>
<path d="M26.6223 47.9069L26.3323 47.8669V47.7969H26.6323V47.9169L26.6223 47.9069Z" fill="#F8AD5C"/>
<path d="M47.6122 43.3273L47.4422 43.4473C47.4422 43.4473 47.3822 43.3673 47.3922 43.3473C47.4322 43.2873 47.4822 43.2473 47.5322 43.1973L47.6022 43.3173L47.6122 43.3273Z" fill="#F8AD5C"/>
<path d="M52.9323 45.2568L53.0123 45.5568L52.9323 45.5768L52.8523 45.2768L52.9323 45.2568Z" fill="#F8AD5C"/>
<path d="M51.2921 45.667C51.2921 45.667 51.1921 45.627 51.1921 45.607C51.1921 45.557 51.2121 45.507 51.2221 45.457C51.2521 45.467 51.3121 45.487 51.3121 45.497C51.3121 45.547 51.3021 45.607 51.2921 45.667Z" fill="#F8AD5C"/>
<path d="M52.0923 45.5469C52.1823 45.5769 52.2623 45.6069 52.3523 45.6369C52.3523 45.6369 52.3423 45.6969 52.3323 45.7269L52.0723 45.6169L52.1023 45.5469H52.0923Z" fill="#F8AD5C"/>
<path d="M46.1421 53.1665C46.1121 53.1065 46.0721 53.0665 46.0821 53.0465C46.1121 53.0065 46.1621 52.9665 46.2021 52.9365C46.2221 52.9665 46.2621 53.0165 46.2521 53.0365C46.2321 53.0865 46.1821 53.1165 46.1421 53.1665Z" fill="#F8AD5C"/>
<path d="M48.6623 56.1468L48.4623 56.2368C48.4623 56.2368 48.4223 56.1468 48.4323 56.1368C48.4823 56.0868 48.5523 56.0468 48.6123 56.0068L48.6623 56.1368V56.1468Z" fill="#F8AD5C"/>
<path d="M29.3523 52.1764L29.4923 52.1064C29.4923 52.1064 29.5523 52.2164 29.5423 52.2264C29.5023 52.2664 29.4523 52.2764 29.4023 52.2964L29.3623 52.1764H29.3523Z" fill="#F8AD5C"/>
<path d="M41.3623 52.3074C41.3023 52.3674 41.2623 52.4274 41.2023 52.4774C41.1923 52.4774 41.1423 52.4574 41.1123 52.4474C41.1523 52.3874 41.1923 52.3274 41.2423 52.2774C41.2523 52.2674 41.3023 52.2974 41.3623 52.3174V52.3074Z" fill="#F8AD5C"/>
<path d="M21.9022 50.4973C21.8822 50.4173 21.8422 50.3673 21.8522 50.3273C21.8522 50.2873 21.9222 50.2673 21.9622 50.2373C21.9922 50.2773 22.0422 50.3273 22.0322 50.3673C22.0322 50.4073 21.9622 50.4373 21.9022 50.4973Z" fill="#F8AD5C"/>
<path d="M52.1921 49.7765C52.1221 49.8065 52.0621 49.8365 52.0021 49.8465C52.0021 49.8465 51.9521 49.7765 51.9521 49.7665C52.0121 49.7265 52.0721 49.6865 52.1221 49.6465L52.1921 49.7665V49.7765Z" fill="#F8AD5C"/>
<path d="M53.9223 50.1972L53.8123 50.1372C53.8123 50.1372 53.8823 50.0372 53.9223 49.9972C53.9423 49.9772 53.9823 49.9972 54.0223 49.9972L53.9223 50.1972Z" fill="#F8AD5C"/>
<path d="M48.9922 50.1971L48.8822 50.2571L48.8022 50.1071L48.9422 50.0371L48.9922 50.1971Z" fill="#F8AD5C"/>
<path d="M33.3823 49.0172C33.3223 49.0672 33.2823 49.1272 33.2323 49.1272C33.1823 49.1272 33.1323 49.0772 33.0923 49.0572C33.1423 49.0072 33.1823 48.9472 33.2423 48.9072C33.2523 48.9072 33.3223 48.9672 33.3823 49.0172Z" fill="#F8AD5C"/>
<path d="M49.4123 49.4668L49.5623 49.5968C49.5623 49.5968 49.4923 49.6768 49.4523 49.6968C49.4323 49.6968 49.3623 49.6568 49.3623 49.6368C49.3623 49.5968 49.3923 49.5468 49.4123 49.4668Z" fill="#F8AD5C"/>
<path d="M30.0823 49.6667L29.9823 49.7367C29.9423 49.6867 29.9023 49.6367 29.8623 49.5867C29.8923 49.5767 29.9423 49.5467 29.9623 49.5567C30.0123 49.5867 30.0423 49.6367 30.0823 49.6767V49.6667Z" fill="#F8AD5C"/>
<path d="M48.1021 49.5168L48.0021 49.6468C48.0021 49.6468 47.9021 49.5568 47.9121 49.5368C47.9321 49.4868 47.9821 49.4568 48.0221 49.4268L48.1021 49.5268V49.5168Z" fill="#F8AD5C"/>
<path d="M57.1421 46.6468L57.4221 46.4268C57.4021 46.4868 57.3821 46.5568 57.3421 46.6168C57.3321 46.6368 57.2821 46.6268 57.1421 46.6468Z" fill="#F8AD5C"/>
<path d="M53.5722 51.2373C53.6022 51.3173 53.6522 51.3773 53.6422 51.4173C53.6222 51.4573 53.5622 51.4773 53.5122 51.4973C53.4922 51.4673 53.4622 51.4273 53.4622 51.3973C53.4722 51.3473 53.5122 51.3173 53.5722 51.2373Z" fill="#F8AD5C"/>
<path d="M34.2622 51.5166H34.5322V51.5866L34.2722 51.6166V51.5166H34.2622Z" fill="#F8AD5C"/>
<path d="M54.4522 51.8973L54.2722 51.9673C54.2722 51.9673 54.2722 51.8873 54.2922 51.8673C54.3322 51.8273 54.3822 51.8073 54.4322 51.7773L54.4622 51.8973H54.4522Z" fill="#F8AD5C"/>
<path d="M45.7622 50.3664C45.7922 50.4364 45.8422 50.4964 45.8222 50.5264C45.8022 50.5664 45.7322 50.6064 45.6822 50.6064C45.6522 50.6064 45.5922 50.5164 45.6022 50.4864C45.6222 50.4464 45.6822 50.4164 45.7522 50.3564L45.7622 50.3664Z" fill="#F8AD5C"/>
<path d="M37.9221 50.7368C37.9221 50.7368 37.8421 50.8168 37.7921 50.8368C37.7721 50.8368 37.7221 50.8068 37.6921 50.7968C37.7321 50.7568 37.7621 50.7068 37.8021 50.6768C37.8221 50.6768 37.8621 50.7068 37.9121 50.7368H37.9221Z" fill="#F8AD5C"/>
<path d="M48.7823 42.5069C48.7823 42.5069 48.7123 42.5969 48.7023 42.5969C48.6523 42.5769 48.6123 42.5369 48.5623 42.5069C48.5923 42.4769 48.6323 42.4169 48.6523 42.4269C48.7023 42.4469 48.7423 42.4869 48.7823 42.5169V42.5069Z" fill="#F8AD5C"/>
<path opacity="0.24" d="M61.172 45.4767C59.042 43.3467 53.932 42.4867 52.132 42.4867C48.822 42.4867 47.092 41.5967 38.832 41.5967C38.112 41.5967 37.292 41.6667 36.382 41.8467C35.992 42.0167 35.612 42.1867 35.232 42.3767C34.932 42.5567 35.982 42.4367 38.632 43.5067C41.282 44.5767 41.932 45.2167 41.932 45.2167C41.932 45.2167 44.612 45.4867 46.742 45.9167L39.322 48.3567C39.322 48.3567 39.672 48.6667 39.712 48.6367L47.562 46.0867C52.172 47.1567 53.162 47.8267 53.162 47.8267C57.152 47.6567 60.082 48.3467 61.062 48.6267C62.212 48.0567 62.802 47.0867 61.182 45.4567L61.172 45.4767Z" fill="#512D00"/>
<path d="M33.3221 28.0879L40.2321 48.3079C40.2721 48.4179 40.0521 48.5979 39.7521 48.6979C39.4521 48.7979 39.1721 48.7979 39.1321 48.6779L31.8721 28.5779L33.3221 28.0879Z" fill="url(#paint23_linear_1044_2594)"/>
<path d="M31.8721 28.5879L36.5921 41.6479C36.8321 41.7179 37.0121 41.7479 37.1521 41.7579C37.4221 41.7879 37.6521 41.9679 37.7421 42.2179L40.0021 48.5879C40.1621 48.4979 40.2621 48.3879 40.2321 48.3079L33.3221 28.0879L31.8721 28.5779V28.5879Z" fill="#643800"/>
<path d="M25.4521 9.08747C25.4521 9.08747 46.6721 0.157472 55.2221 19.2375C55.2221 19.2375 46.0121 4.09747 25.4521 9.08747Z" fill="url(#paint24_radial_1044_2594)"/>
<path d="M21.9221 35.0279C15.8621 33.3679 10.5221 35.3179 8.83212 36.0779C8.58212 36.1879 8.31212 36.0279 8.26212 35.7579C6.54212 25.7279 13.4021 12.3179 25.4521 9.08789C25.4521 9.08789 16.0221 16.6879 21.9221 35.0279Z" fill="url(#paint25_radial_1044_2594)"/>
<path d="M25.4521 9.08789C6.18212 18.4079 8.26212 35.7479 8.26212 35.7479C6.54212 25.7279 13.4021 12.3179 25.4521 9.08789Z" fill="url(#paint26_radial_1044_2594)"/>
<path d="M55.2222 19.2274C55.4922 19.9774 54.0122 19.2574 48.8122 22.5774C43.6022 25.9074 41.9322 28.1074 41.9322 28.1074C41.9322 28.1074 35.4922 10.7774 25.4622 9.0774C46.0222 4.0874 55.2322 19.2274 55.2322 19.2274H55.2222Z" fill="url(#paint27_radial_1044_2594)"/>
<path d="M25.4521 9.08789C35.4821 10.7879 41.9221 28.1179 41.9221 28.1179C41.9221 28.1179 36.5121 28.5379 32.6121 29.8579C24.1821 32.7279 21.9221 35.0179 21.9221 35.0179C16.0221 16.6879 25.4521 9.08789 25.4521 9.08789Z" fill="url(#paint28_radial_1044_2594)"/>
<path d="M41.6321 27.3878H41.6721C41.9921 26.6578 47.7721 21.3878 55.0721 19.0078C55.1721 19.1578 55.2221 19.2378 55.2221 19.2378C55.4921 19.9878 54.0121 19.2678 48.8121 22.5878C43.6021 25.9178 41.9321 28.1178 41.9321 28.1178C41.9321 28.1178 41.8321 27.8478 41.6421 27.3878H41.6321Z" fill="url(#paint29_radial_1044_2594)"/>
<path d="M41.6321 27.3879C41.8221 27.8579 41.9221 28.1179 41.9221 28.1179C41.9221 28.1179 36.5121 28.5379 32.6121 29.8579C24.1821 32.7279 21.9221 35.0179 21.9221 35.0179C21.8321 34.7379 21.7421 34.4579 21.6621 34.1879C30.9621 28.1479 40.9521 27.4279 41.6321 27.3779V27.3879Z" fill="url(#paint30_linear_1044_2594)"/>
<path d="M21.6622 34.1873C21.7422 34.4673 21.8322 34.7373 21.9222 35.0173C15.8622 33.3573 10.5222 35.3073 8.83221 36.0673C8.58221 36.1773 8.31221 36.0173 8.26221 35.7473C14.8422 32.7073 21.6622 34.1873 21.6622 34.1873Z" fill="url(#paint31_linear_1044_2594)"/>
<path d="M41.9222 28.1179C33.8522 10.7079 25.7322 9.13789 25.4622 9.08789C35.4922 10.7979 41.9222 28.1179 41.9222 28.1179Z" fill="url(#paint32_radial_1044_2594)"/>
<path d="M22.252 34.7479C22.032 34.9279 21.932 35.0279 21.932 35.0279C16.022 16.6879 25.452 9.08789 25.452 9.08789C23.512 11.5679 17.422 20.8479 22.242 34.7479H22.252Z" fill="url(#paint33_radial_1044_2594)"/>
<path d="M25.4521 9.08789C6.1821 18.4079 8.2621 35.7479 8.2621 35.7479C8.3221 16.5579 25.4521 9.08789 25.4521 9.08789Z" fill="url(#paint34_radial_1044_2594)"/>
<path d="M25.4521 9.08716C46.0121 4.09716 55.2221 19.2372 55.2221 19.2372C55.2221 19.2372 45.1221 5.09716 25.4521 9.08716Z" fill="url(#paint35_radial_1044_2594)"/>
<path d="M55.2221 19.2275C46.2521 1.20747 25.4521 9.08747 25.4521 9.08747C25.4521 9.08747 46.6721 0.157472 55.2221 19.2375V19.2275Z" fill="url(#paint36_radial_1044_2594)"/>
<path d="M25.4521 9.08789C6.18212 18.4079 8.26212 35.7479 8.26212 35.7479C6.54212 25.7279 13.4021 12.3179 25.4521 9.08789Z" fill="url(#paint37_radial_1044_2594)"/>
<path d="M25.4521 9.08789C5.99212 16.4379 8.26212 35.7479 8.26212 35.7479C6.54212 25.7279 13.4021 12.3179 25.4521 9.08789Z" fill="url(#paint38_radial_1044_2594)"/>
<path d="M24.7422 9.32783C24.7422 9.32783 24.5122 7.32783 24.8122 7.22783C25.1122 7.12783 26.1522 8.84783 26.1522 8.84783C26.1522 8.84783 26.0922 9.10783 25.5222 9.29783C24.9522 9.48783 24.7322 9.32783 24.7322 9.32783H24.7422Z" fill="url(#paint39_linear_1044_2594)"/>
<path d="M25.582 9.27766C26.102 9.08766 26.162 8.84766 26.162 8.84766C26.162 8.84766 25.472 7.72766 25.062 7.34766C24.952 7.66766 25.542 8.21766 25.552 8.51766C25.552 8.72766 25.472 9.10766 25.592 9.27766H25.582Z" fill="url(#paint40_linear_1044_2594)"/>
<defs>
<radialGradient id="paint0_radial_1044_2594" cx="0" cy="0" r="1" gradientUnits="userSpaceOnUse" gradientTransform="translate(33.2396 53.2036) rotate(-1.39) scale(25.993 6.116)">
<stop stop-color="white"/>
<stop offset="1" stop-color="white" stop-opacity="0"/>
</radialGradient>
<radialGradient id="paint1_radial_1044_2594" cx="0" cy="0" r="1" gradientUnits="userSpaceOnUse" gradientTransform="translate(48.1956 48.596) rotate(93.47) scale(8.0852 63.7304)">
<stop stop-color="white" stop-opacity="0.5"/>
<stop offset="1" stop-color="white" stop-opacity="0"/>
</radialGradient>
<linearGradient id="paint2_linear_1044_2594" x1="41.8122" y1="55.2769" x2="36.9222" y2="46.7769" gradientUnits="userSpaceOnUse">
<stop stop-color="#FFD67C"/>
<stop offset="0.36" stop-color="#FFD781"/>
<stop offset="0.8" stop-color="#FFDC90"/>
<stop offset="1" stop-color="#FFDF9A"/>
</linearGradient>
<radialGradient id="paint3_radial_1044_2594" cx="0" cy="0" r="1" gradientUnits="userSpaceOnUse" gradientTransform="translate(39.137 40.6171) rotate(78.87) scale(9.9042 18.6432)">
<stop stop-color="#FFC94B"/>
<stop offset="1" stop-color="#FFA554" stop-opacity="0"/>
</radialGradient>
<radialGradient id="paint4_radial_1044_2594" cx="0" cy="0" r="1" gradientUnits="userSpaceOnUse" gradientTransform="translate(34.4177 48.3802) rotate(-1.39) scale(23.5025 11.06)">
<stop stop-color="#FFC94B"/>
<stop offset="1" stop-color="#FFA554" stop-opacity="0"/>
</radialGradient>
<radialGradient id="paint5_radial_1044_2594" cx="0" cy="0" r="1" gradientUnits="userSpaceOnUse" gradientTransform="translate(41.2084 40.255) scale(9.265)">
<stop stop-color="#FFC94B"/>
<stop offset="1" stop-color="#FFA554" stop-opacity="0"/>
</radialGradient>
<radialGradient id="paint6_radial_1044_2594" cx="0" cy="0" r="1" gradientUnits="userSpaceOnUse" gradientTransform="translate(17.1177 53.0186) scale(0.3604 0.360402)">
<stop stop-color="#FFA554"/>
<stop offset="0.1" stop-color="#FFA554" stop-opacity="0.98"/>
<stop offset="0.22" stop-color="#FFA554" stop-opacity="0.92"/>
<stop offset="0.36" stop-color="#FFA554" stop-opacity="0.82"/>
<stop offset="0.51" stop-color="#FFA554" stop-opacity="0.68"/>
<stop offset="0.66" stop-color="#FFA554" stop-opacity="0.5"/>
<stop offset="0.82" stop-color="#FFA554" stop-opacity="0.29"/>
<stop offset="0.98" stop-color="#FFA554" stop-opacity="0.04"/>
<stop offset="1" stop-color="#FFA554" stop-opacity="0"/>
</radialGradient>
<radialGradient id="paint7_radial_1044_2594" cx="0" cy="0" r="1" gradientUnits="userSpaceOnUse" gradientTransform="translate(29.6553 44.7222) scale(0.360399)">
<stop stop-color="#FFA554"/>
<stop offset="0.1" stop-color="#FFA554" stop-opacity="0.98"/>
<stop offset="0.22" stop-color="#FFA554" stop-opacity="0.92"/>
<stop offset="0.36" stop-color="#FFA554" stop-opacity="0.82"/>
<stop offset="0.51" stop-color="#FFA554" stop-opacity="0.68"/>
<stop offset="0.66" stop-color="#FFA554" stop-opacity="0.5"/>
<stop offset="0.82" stop-color="#FFA554" stop-opacity="0.29"/>
<stop offset="0.98" stop-color="#FFA554" stop-opacity="0.04"/>
<stop offset="1" stop-color="#FFA554" stop-opacity="0"/>
</radialGradient>
<radialGradient id="paint8_radial_1044_2594" cx="0" cy="0" r="1" gradientUnits="userSpaceOnUse" gradientTransform="translate(25.1283 47.8384) scale(0.311099 0.311101)">
<stop stop-color="#FFA554"/>
<stop offset="0.1" stop-color="#FFA554" stop-opacity="0.98"/>
<stop offset="0.22" stop-color="#FFA554" stop-opacity="0.92"/>
<stop offset="0.36" stop-color="#FFA554" stop-opacity="0.82"/>
<stop offset="0.51" stop-color="#FFA554" stop-opacity="0.68"/>
<stop offset="0.66" stop-color="#FFA554" stop-opacity="0.5"/>
<stop offset="0.82" stop-color="#FFA554" stop-opacity="0.29"/>
<stop offset="0.98" stop-color="#FFA554" stop-opacity="0.04"/>
<stop offset="1" stop-color="#FFA554" stop-opacity="0"/>
</radialGradient>
<radialGradient id="paint9_radial_1044_2594" cx="0" cy="0" r="1" gradientUnits="userSpaceOnUse" gradientTransform="translate(79.5773 27.0323) rotate(-177.23) scale(0.1842)">
<stop stop-color="#FFA554"/>
<stop offset="0.1" stop-color="#FFA554" stop-opacity="0.98"/>
<stop offset="0.22" stop-color="#FFA554" stop-opacity="0.92"/>
<stop offset="0.36" stop-color="#FFA554" stop-opacity="0.82"/>
<stop offset="0.51" stop-color="#FFA554" stop-opacity="0.68"/>
<stop offset="0.66" stop-color="#FFA554" stop-opacity="0.5"/>
<stop offset="0.82" stop-color="#FFA554" stop-opacity="0.29"/>
<stop offset="0.98" stop-color="#FFA554" stop-opacity="0.04"/>
<stop offset="1" stop-color="#FFA554" stop-opacity="0"/>
</radialGradient>
<radialGradient id="paint10_radial_1044_2594" cx="0" cy="0" r="1" gradientUnits="userSpaceOnUse" gradientTransform="translate(40.1577 48.9855) scale(0.2763)">
<stop stop-color="#FFA554"/>
<stop offset="0.1" stop-color="#FFA554" stop-opacity="0.98"/>
<stop offset="0.22" stop-color="#FFA554" stop-opacity="0.92"/>
<stop offset="0.36" stop-color="#FFA554" stop-opacity="0.82"/>
<stop offset="0.51" stop-color="#FFA554" stop-opacity="0.68"/>
<stop offset="0.66" stop-color="#FFA554" stop-opacity="0.5"/>
<stop offset="0.82" stop-color="#FFA554" stop-opacity="0.29"/>
<stop offset="0.98" stop-color="#FFA554" stop-opacity="0.04"/>
<stop offset="1" stop-color="#FFA554" stop-opacity="0"/>
</radialGradient>
<radialGradient id="paint11_radial_1044_2594" cx="0" cy="0" r="1" gradientUnits="userSpaceOnUse" gradientTransform="translate(59.6599 39.0364) scale(0.184199 0.1842)">
<stop stop-color="#FFA554"/>
<stop offset="0.1" stop-color="#FFA554" stop-opacity="0.98"/>
<stop offset="0.22" stop-color="#FFA554" stop-opacity="0.92"/>
<stop offset="0.36" stop-color="#FFA554" stop-opacity="0.82"/>
<stop offset="0.51" stop-color="#FFA554" stop-opacity="0.68"/>
<stop offset="0.66" stop-color="#FFA554" stop-opacity="0.5"/>
<stop offset="0.82" stop-color="#FFA554" stop-opacity="0.29"/>
<stop offset="0.98" stop-color="#FFA554" stop-opacity="0.04"/>
<stop offset="1" stop-color="#FFA554" stop-opacity="0"/>
</radialGradient>
<radialGradient id="paint12_radial_1044_2594" cx="0" cy="0" r="1" gradientUnits="userSpaceOnUse" gradientTransform="translate(39.1774 48.4993) scale(0.3377 0.337699)">
<stop stop-color="#FFA554"/>
<stop offset="0.1" stop-color="#FFA554" stop-opacity="0.98"/>
<stop offset="0.22" stop-color="#FFA554" stop-opacity="0.92"/>
<stop offset="0.36" stop-color="#FFA554" stop-opacity="0.82"/>
<stop offset="0.51" stop-color="#FFA554" stop-opacity="0.68"/>
<stop offset="0.66" stop-color="#FFA554" stop-opacity="0.5"/>
<stop offset="0.82" stop-color="#FFA554" stop-opacity="0.29"/>
<stop offset="0.98" stop-color="#FFA554" stop-opacity="0.04"/>
<stop offset="1" stop-color="#FFA554" stop-opacity="0"/>
</radialGradient>
<radialGradient id="paint13_radial_1044_2594" cx="0" cy="0" r="1" gradientUnits="userSpaceOnUse" gradientTransform="translate(30.9728 50.7328) rotate(-177.23) scale(0.3377 0.337699)">
<stop stop-color="#FFA554"/>
<stop offset="0.1" stop-color="#FFA554" stop-opacity="0.98"/>
<stop offset="0.22" stop-color="#FFA554" stop-opacity="0.92"/>
<stop offset="0.36" stop-color="#FFA554" stop-opacity="0.82"/>
<stop offset="0.51" stop-color="#FFA554" stop-opacity="0.68"/>
<stop offset="0.66" stop-color="#FFA554" stop-opacity="0.5"/>
<stop offset="0.82" stop-color="#FFA554" stop-opacity="0.29"/>
<stop offset="0.98" stop-color="#FFA554" stop-opacity="0.04"/>
<stop offset="1" stop-color="#FFA554" stop-opacity="0"/>
</radialGradient>
<radialGradient id="paint14_radial_1044_2594" cx="0" cy="0" r="1" gradientUnits="userSpaceOnUse" gradientTransform="translate(37.822 51.3934) scale(0.521901)">
<stop stop-color="#FFA554"/>
<stop offset="0.1" stop-color="#FFA554" stop-opacity="0.98"/>
<stop offset="0.22" stop-color="#FFA554" stop-opacity="0.92"/>
<stop offset="0.36" stop-color="#FFA554" stop-opacity="0.82"/>
<stop offset="0.51" stop-color="#FFA554" stop-opacity="0.68"/>
<stop offset="0.66" stop-color="#FFA554" stop-opacity="0.5"/>
<stop offset="0.82" stop-color="#FFA554" stop-opacity="0.29"/>
<stop offset="0.98" stop-color="#FFA554" stop-opacity="0.04"/>
<stop offset="1" stop-color="#FFA554" stop-opacity="0"/>
</radialGradient>
<radialGradient id="paint15_radial_1044_2594" cx="0" cy="0" r="1" gradientUnits="userSpaceOnUse" gradientTransform="translate(69.8828 35.1354) scale(0.1842)">
<stop stop-color="#FFA554"/>
<stop offset="0.1" stop-color="#FFA554" stop-opacity="0.98"/>
<stop offset="0.22" stop-color="#FFA554" stop-opacity="0.92"/>
<stop offset="0.36" stop-color="#FFA554" stop-opacity="0.82"/>
<stop offset="0.51" stop-color="#FFA554" stop-opacity="0.68"/>
<stop offset="0.66" stop-color="#FFA554" stop-opacity="0.5"/>
<stop offset="0.82" stop-color="#FFA554" stop-opacity="0.29"/>
<stop offset="0.98" stop-color="#FFA554" stop-opacity="0.04"/>
<stop offset="1" stop-color="#FFA554" stop-opacity="0"/>
</radialGradient>
<radialGradient id="paint16_radial_1044_2594" cx="0" cy="0" r="1" gradientUnits="userSpaceOnUse" gradientTransform="translate(82.7731 31.3452) scale(0.213599 0.213601)">
<stop stop-color="#FFA554"/>
<stop offset="0.1" stop-color="#FFA554" stop-opacity="0.98"/>
<stop offset="0.22" stop-color="#FFA554" stop-opacity="0.92"/>
<stop offset="0.36" stop-color="#FFA554" stop-opacity="0.82"/>
<stop offset="0.51" stop-color="#FFA554" stop-opacity="0.68"/>
<stop offset="0.66" stop-color="#FFA554" stop-opacity="0.5"/>
<stop offset="0.82" stop-color="#FFA554" stop-opacity="0.29"/>
<stop offset="0.98" stop-color="#FFA554" stop-opacity="0.04"/>
<stop offset="1" stop-color="#FFA554" stop-opacity="0"/>
</radialGradient>
<radialGradient id="paint17_radial_1044_2594" cx="0" cy="0" r="1" gradientUnits="userSpaceOnUse" gradientTransform="translate(13.3243 67.6795) scale(0.153499 0.153501)">
<stop stop-color="#FFA554"/>
<stop offset="0.1" stop-color="#FFA554" stop-opacity="0.98"/>
<stop offset="0.22" stop-color="#FFA554" stop-opacity="0.92"/>
<stop offset="0.36" stop-color="#FFA554" stop-opacity="0.82"/>
<stop offset="0.51" stop-color="#FFA554" stop-opacity="0.68"/>
<stop offset="0.66" stop-color="#FFA554" stop-opacity="0.5"/>
<stop offset="0.82" stop-color="#FFA554" stop-opacity="0.29"/>
<stop offset="0.98" stop-color="#FFA554" stop-opacity="0.04"/>
<stop offset="1" stop-color="#FFA554" stop-opacity="0"/>
</radialGradient>
<radialGradient id="paint18_radial_1044_2594" cx="0" cy="0" r="1" gradientUnits="userSpaceOnUse" gradientTransform="translate(72.538 44.1616) scale(0.2763)">
<stop stop-color="#FFA554"/>
<stop offset="0.1" stop-color="#FFA554" stop-opacity="0.98"/>
<stop offset="0.22" stop-color="#FFA554" stop-opacity="0.92"/>
<stop offset="0.36" stop-color="#FFA554" stop-opacity="0.82"/>
<stop offset="0.51" stop-color="#FFA554" stop-opacity="0.68"/>
<stop offset="0.66" stop-color="#FFA554" stop-opacity="0.5"/>
<stop offset="0.82" stop-color="#FFA554" stop-opacity="0.29"/>
<stop offset="0.98" stop-color="#FFA554" stop-opacity="0.04"/>
<stop offset="1" stop-color="#FFA554" stop-opacity="0"/>
</radialGradient>
<radialGradient id="paint19_radial_1044_2594" cx="0" cy="0" r="1" gradientUnits="userSpaceOnUse" gradientTransform="translate(49.426 44.048) scale(0.337701 0.337699)">
<stop stop-color="#FFA554"/>
<stop offset="0.1" stop-color="#FFA554" stop-opacity="0.98"/>
<stop offset="0.22" stop-color="#FFA554" stop-opacity="0.92"/>
<stop offset="0.36" stop-color="#FFA554" stop-opacity="0.82"/>
<stop offset="0.51" stop-color="#FFA554" stop-opacity="0.68"/>
<stop offset="0.66" stop-color="#FFA554" stop-opacity="0.5"/>
<stop offset="0.82" stop-color="#FFA554" stop-opacity="0.29"/>
<stop offset="0.98" stop-color="#FFA554" stop-opacity="0.04"/>
<stop offset="1" stop-color="#FFA554" stop-opacity="0"/>
</radialGradient>
<radialGradient id="paint20_radial_1044_2594" cx="0" cy="0" r="1" gradientUnits="userSpaceOnUse" gradientTransform="translate(36.2777 54.2512) scale(0.245599 0.245601)">
<stop stop-color="#FFA554"/>
<stop offset="0.1" stop-color="#FFA554" stop-opacity="0.98"/>
<stop offset="0.22" stop-color="#FFA554" stop-opacity="0.92"/>
<stop offset="0.36" stop-color="#FFA554" stop-opacity="0.82"/>
<stop offset="0.51" stop-color="#FFA554" stop-opacity="0.68"/>
<stop offset="0.66" stop-color="#FFA554" stop-opacity="0.5"/>
<stop offset="0.82" stop-color="#FFA554" stop-opacity="0.29"/>
<stop offset="0.98" stop-color="#FFA554" stop-opacity="0.04"/>
<stop offset="1" stop-color="#FFA554" stop-opacity="0"/>
</radialGradient>
<radialGradient id="paint21_radial_1044_2594" cx="0" cy="0" r="1" gradientUnits="userSpaceOnUse" gradientTransform="translate(105.539 24.3591) scale(0.122799)">
<stop stop-color="#FFA554"/>
<stop offset="0.1" stop-color="#FFA554" stop-opacity="0.98"/>
<stop offset="0.22" stop-color="#FFA554" stop-opacity="0.92"/>
<stop offset="0.36" stop-color="#FFA554" stop-opacity="0.82"/>
<stop offset="0.51" stop-color="#FFA554" stop-opacity="0.68"/>
<stop offset="0.66" stop-color="#FFA554" stop-opacity="0.5"/>
<stop offset="0.82" stop-color="#FFA554" stop-opacity="0.29"/>
<stop offset="0.98" stop-color="#FFA554" stop-opacity="0.04"/>
<stop offset="1" stop-color="#FFA554" stop-opacity="0"/>
</radialGradient>
<radialGradient id="paint22_radial_1044_2594" cx="0" cy="0" r="1" gradientUnits="userSpaceOnUse" gradientTransform="translate(56.5877 45.1795) scale(0.337699 0.337701)">
<stop stop-color="#FFA554"/>
<stop offset="0.1" stop-color="#FFA554" stop-opacity="0.98"/>
<stop offset="0.22" stop-color="#FFA554" stop-opacity="0.92"/>
<stop offset="0.36" stop-color="#FFA554" stop-opacity="0.82"/>
<stop offset="0.51" stop-color="#FFA554" stop-opacity="0.68"/>
<stop offset="0.66" stop-color="#FFA554" stop-opacity="0.5"/>
<stop offset="0.82" stop-color="#FFA554" stop-opacity="0.29"/>
<stop offset="0.98" stop-color="#FFA554" stop-opacity="0.04"/>
<stop offset="1" stop-color="#FFA554" stop-opacity="0"/>
</radialGradient>
<linearGradient id="paint23_linear_1044_2594" x1="30.0721" y1="35.6079" x2="43.1421" y2="41.5479" gradientUnits="userSpaceOnUse">
<stop stop-color="#C26F34"/>
<stop offset="0.14" stop-color="#C9783C"/>
<stop offset="0.37" stop-color="#DF9053"/>
<stop offset="0.46" stop-color="#E99C5F"/>
<stop offset="0.62" stop-color="#D68A4F"/>
<stop offset="0.94" stop-color="#A65C26"/>
<stop offset="1" stop-color="#9D541E"/>
</linearGradient>
<radialGradient id="paint24_radial_1044_2594" cx="0" cy="0" r="1" gradientUnits="userSpaceOnUse" gradientTransform="translate(45.0898 10.2156) rotate(161.2) scale(11.3925 11.3925)">
<stop stop-color="#FF8300"/>
<stop offset="0.26" stop-color="#FF7900"/>
<stop offset="0.69" stop-color="#FF6100"/>
<stop offset="1" stop-color="#FF4C00"/>
</radialGradient>
<radialGradient id="paint25_radial_1044_2594" cx="0" cy="0" r="1" gradientUnits="userSpaceOnUse" gradientTransform="translate(16.9812 24.2243) rotate(-70.66) scale(34.0875 31.3605)">
<stop stop-color="#FFD148"/>
<stop offset="0.2" stop-color="#FFC73F"/>
<stop offset="0.54" stop-color="#FFAF28"/>
<stop offset="0.96" stop-color="#FF8704"/>
<stop offset="1" stop-color="#FF8300"/>
</radialGradient>
<radialGradient id="paint26_radial_1044_2594" cx="0" cy="0" r="1" gradientUnits="userSpaceOnUse" gradientTransform="translate(18.3803 13.8203) rotate(161.2) scale(15.8038 15.8038)">
<stop stop-color="#FF8300"/>
<stop offset="0.26" stop-color="#FF7900"/>
<stop offset="0.69" stop-color="#FF6100"/>
<stop offset="1" stop-color="#FF4C00"/>
</radialGradient>
<radialGradient id="paint27_radial_1044_2594" cx="0" cy="0" r="1" gradientUnits="userSpaceOnUse" gradientTransform="translate(39.8316 15.5244) rotate(41.52) scale(39.6862 26.8842)">
<stop stop-color="#CBECFF"/>
<stop offset="0.43" stop-color="#7FD5FC"/>
<stop offset="1" stop-color="#17B5F8"/>
</radialGradient>
<radialGradient id="paint28_radial_1044_2594" cx="0" cy="0" r="1" gradientUnits="userSpaceOnUse" gradientTransform="translate(29.6514 20.3616) rotate(161.2) scale(11.0019 36.5547)">
<stop stop-color="#FF0000"/>
<stop offset="0.23" stop-color="#F50000"/>
<stop offset="0.6" stop-color="#DD0000"/>
<stop offset="1" stop-color="#BC0000"/>
</radialGradient>
<radialGradient id="paint29_radial_1044_2594" cx="0" cy="0" r="1" gradientUnits="userSpaceOnUse" gradientTransform="translate(46.3053 14.354) rotate(161.2) scale(22.5432)">
<stop stop-color="#CBECFF"/>
<stop offset="0.43" stop-color="#7FD5FC"/>
<stop offset="1" stop-color="#17B5F8"/>
</radialGradient>
<linearGradient id="paint30_linear_1044_2594" x1="31.9534" y1="15.1641" x2="32.6483" y2="28.525" gradientUnits="userSpaceOnUse">
<stop stop-color="#FF0000"/>
<stop offset="0.23" stop-color="#F50000"/>
<stop offset="0.6" stop-color="#DD0000"/>
<stop offset="1" stop-color="#BC0000"/>
</linearGradient>
<linearGradient id="paint31_linear_1044_2594" x1="14.3146" y1="20.2218" x2="16.251" y2="35.8643" gradientUnits="userSpaceOnUse">
<stop stop-color="#FFD148"/>
<stop offset="0.2" stop-color="#FFC73F"/>
<stop offset="0.54" stop-color="#FFAF28"/>
<stop offset="0.96" stop-color="#FF8704"/>
<stop offset="1" stop-color="#FF8300"/>
</linearGradient>
<radialGradient id="paint32_radial_1044_2594" cx="0" cy="0" r="1" gradientUnits="userSpaceOnUse" gradientTransform="translate(35.111 18.4609) rotate(161.2) scale(8.7668 29.1284)">
<stop stop-color="#FF4E0D"/>
<stop offset="0.2" stop-color="#F7440B"/>
<stop offset="0.54" stop-color="#E22C07"/>
<stop offset="0.96" stop-color="#C00400"/>
<stop offset="1" stop-color="#BC0000"/>
</radialGradient>
<radialGradient id="paint33_radial_1044_2594" cx="0" cy="0" r="1" gradientUnits="userSpaceOnUse" gradientTransform="translate(25.2494 21.8601) rotate(161.2) scale(9.1295 30.3335)">
<stop stop-color="#FF4E0D"/>
<stop offset="0.2" stop-color="#F7440B"/>
<stop offset="0.54" stop-color="#E22C07"/>
<stop offset="0.96" stop-color="#C00400"/>
<stop offset="1" stop-color="#BC0000"/>
</radialGradient>
<radialGradient id="paint34_radial_1044_2594" cx="0" cy="0" r="1" gradientUnits="userSpaceOnUse" gradientTransform="translate(13.293 19.2011) rotate(115.17) scale(20.3267 11.1469)">
<stop stop-color="#FFD148"/>
<stop offset="0.2" stop-color="#FFC73F"/>
<stop offset="0.54" stop-color="#FFAF28"/>
<stop offset="0.96" stop-color="#FF8704"/>
<stop offset="1" stop-color="#FF8300"/>
</radialGradient>
<radialGradient id="paint35_radial_1044_2594" cx="0" cy="0" r="1" gradientUnits="userSpaceOnUse" gradientTransform="translate(47.6402 0.921243) rotate(161.2) scale(20.0539)">
<stop stop-color="#CBECFF"/>
<stop offset="0.43" stop-color="#7FD5FC"/>
<stop offset="1" stop-color="#17B5F8"/>
</radialGradient>
<radialGradient id="paint36_radial_1044_2594" cx="0" cy="0" r="1" gradientUnits="userSpaceOnUse" gradientTransform="translate(52.8093 -12.1948) rotate(161.2) scale(21.6473)">
<stop stop-color="#FF8300"/>
<stop offset="0.26" stop-color="#FF7900"/>
<stop offset="0.69" stop-color="#FF6100"/>
<stop offset="1" stop-color="#FF4C00"/>
</radialGradient>
<radialGradient id="paint37_radial_1044_2594" cx="0" cy="0" r="1" gradientUnits="userSpaceOnUse" gradientTransform="translate(7.76347 6.29102) rotate(9.36) scale(20.865 20.865)">
<stop stop-color="#FFD148"/>
<stop offset="0.2" stop-color="#FFC73F"/>
<stop offset="0.54" stop-color="#FFAF28"/>
<stop offset="0.96" stop-color="#FF8704"/>
<stop offset="1" stop-color="#FF8300"/>
</radialGradient>
<radialGradient id="paint38_radial_1044_2594" cx="0" cy="0" r="1" gradientUnits="userSpaceOnUse" gradientTransform="translate(13.9627 12.3524) rotate(9.36) scale(30.45 30.45)">
<stop stop-color="#FF8300"/>
<stop offset="0.26" stop-color="#FF7900"/>
<stop offset="0.69" stop-color="#FF6100"/>
<stop offset="1" stop-color="#FF4C00"/>
</radialGradient>
<linearGradient id="paint39_linear_1044_2594" x1="26.6905" y1="5.88503" x2="26.4121" y2="8.64184" gradientUnits="userSpaceOnUse">
<stop stop-color="#E99C5F"/>
<stop offset="0.3" stop-color="#D68A4F"/>
<stop offset="0.89" stop-color="#A65C26"/>
<stop offset="1" stop-color="#9D541E"/>
</linearGradient>
<linearGradient id="paint40_linear_1044_2594" x1="26.072" y1="5.63766" x2="25.722" y2="7.50766" gradientUnits="userSpaceOnUse">
<stop stop-color="#E99C5F"/>
<stop offset="0.3" stop-color="#D68A4F"/>
<stop offset="0.89" stop-color="#A65C26"/>
<stop offset="1" stop-color="#9D541E"/>
</linearGradient>
</defs>
</svg>
