<svg width="72" height="72" viewBox="0 0 72 72" fill="none" xmlns="http://www.w3.org/2000/svg">
<path d="M23.8507 55.4593C23.8076 55.4593 23.7605 55.4514 23.7134 55.4397C18.9899 53.9999 13.8741 48.837 12.7639 44.392C12.7011 44.1409 12.8541 43.8899 13.1012 43.8271C13.3523 43.7643 13.6034 43.9173 13.6662 44.1645C14.6901 48.2642 19.6098 53.2113 23.9841 54.5491C24.2313 54.6237 24.3686 54.8826 24.2941 55.1297C24.2352 55.3298 24.0508 55.4593 23.8507 55.4593Z" fill="#975500"/>
<path d="M26.1027 61.3163C26.0674 61.3163 26.0321 61.3124 25.9967 61.3046C22.0893 60.3944 17.5462 57.4756 13.5368 53.2935C9.7862 49.386 7.35776 45.2274 7.20083 42.442C7.18514 42.187 7.3813 41.9633 7.64023 41.9516C7.89523 41.9359 8.11885 42.132 8.13062 42.391C8.27186 44.9253 10.6571 48.9505 14.2076 52.6501C18.0955 56.7066 22.4698 59.5274 26.2086 60.3983C26.4597 60.4572 26.6166 60.7082 26.5578 60.9593C26.5068 61.1712 26.3145 61.3163 26.1027 61.3163Z" fill="#975500"/>
<path d="M46.1304 20.5509C45.9225 20.5509 45.7341 20.4136 45.6792 20.2057C45.0241 17.7184 42.0464 14.1483 39.3355 13.45C39.0883 13.3872 38.9353 13.1322 39.002 12.8811C39.0687 12.63 39.3198 12.481 39.5708 12.5476C42.6231 13.3362 45.8479 17.1848 46.5816 19.9703C46.6482 20.2174 46.4992 20.4725 46.2481 20.5391C46.2089 20.547 46.1696 20.5509 46.1304 20.5509Z" fill="#975500"/>
<path d="M52.0034 21.3785C51.7954 21.3785 51.6071 21.2373 51.5522 21.0294C49.8064 14.156 43.2782 8.79299 39.5512 8.12605C39.2962 8.07897 39.1314 7.83966 39.1746 7.58465C39.2217 7.32965 39.461 7.16487 39.716 7.20803C43.7765 7.93774 50.5871 13.4655 52.4545 20.7979C52.5173 21.049 52.3682 21.3001 52.1171 21.3628C52.0779 21.3746 52.0426 21.3785 52.0034 21.3785Z" fill="#975500"/>
<path d="M40.4105 33.5916C41.1598 34.4194 41.8346 35.5061 41.5482 35.7925C41.2618 36.0789 40.383 35.561 39.7122 34.8862C39.0413 34.2154 37.4367 41.3555 37.2798 41.7165C37.1621 41.9872 35.2947 44.1292 34.3178 46.1653C33.9922 46.8441 34.0393 48.8919 33.9177 49.0136C33.4273 49.504 32.8035 49.453 31.4578 48.2642C30.1122 47.0755 29.4139 54.1568 31.0184 55.2749C33.7607 57.1895 39.2453 64.7965 46.4914 64.7965C54.8752 64.7965 62.6392 56.0517 62.6392 49.6334C62.6392 43.2151 60.7561 40.7828 60.8816 35.4041C60.9836 30.8493 64.2987 28.6758 64.2987 26.4004C64.2987 24.4859 61.4544 24.019 60.5207 24.019C58.8651 24.019 54.6202 26.1415 54.6202 31.7281C54.6202 33.9015 54.0004 35.867 51.7759 35.867C49.5515 35.867 47.0681 32.8148 45.5656 30.4334" fill="url(#paint0_linear_1044_8242)"/>
<path d="M64.2947 26.4002C64.2947 25.3606 63.4512 24.7486 62.5332 24.4033C63.6356 28.0558 58.0451 28.2127 58.0451 40.657C58.0451 53.1013 50.799 56.7224 47.7977 57.3462C44.7965 57.966 39.5081 58.1465 35.4829 53.2072C34.2471 51.689 32.5719 50.0412 30.7084 48.4837C29.9198 49.798 29.7511 54.392 31.0183 55.2748C33.7606 57.1893 39.2452 64.7963 46.4913 64.7963C54.8751 64.7963 62.6391 56.0515 62.6391 49.6332C62.6391 43.2149 60.756 40.7826 60.8815 35.4039C60.9835 30.8491 64.2947 28.6757 64.2947 26.4002Z" fill="url(#paint1_linear_1044_8242)"/>
<path d="M31.4577 48.2638C30.1121 47.0751 26.9304 43.6855 24.859 42.026C22.7875 40.3704 20.9789 40.39 19.7353 42.2182C18.4917 44.0464 22.1167 47.2555 22.9445 48.0833C24.2116 49.3505 29.4138 54.1564 31.0183 55.2784" fill="url(#paint2_linear_1044_8242)"/>
<path d="M37.2799 41.7165C37.123 42.0774 36.0676 42.3285 33.9687 40.0452C32.3642 38.2994 28.0683 33.2817 25.5339 31.0063C22.9996 28.7308 21.0301 27.7971 19.3745 28.9897C17.719 30.1824 18.6605 32.6618 20.5123 34.7333C22.8034 37.2951 25.4398 39.9079 27.9624 42.4188C29.9357 44.3804 34.4042 48.5271 33.9138 49.0175" fill="url(#paint3_linear_1044_8242)"/>
<path d="M27.9662 42.4144C29.8297 44.2662 33.9098 48.0599 33.9529 48.8955C34.5414 47.9775 33.4665 45.247 32.3287 44.2897C25.7535 38.7541 19.4019 29.8289 18.5937 30.0957C18.2485 31.3943 19.1233 33.1754 20.5121 34.7329C22.8033 37.2908 25.4396 39.9075 27.9662 42.4144Z" fill="url(#paint4_linear_1044_8242)"/>
<path d="M45.5617 30.4373C44.0591 28.056 37.8997 20.3979 36.4011 18.2245C34.8985 16.0511 32.882 16.0511 31.4853 17.0358C30.0887 18.0205 29.6728 19.986 32.8192 24.1642C34.8043 26.8005 36.4521 29.2251 40.4145 33.5955L45.0203 33.2738L45.5617 30.4373Z" fill="url(#paint5_linear_1044_8242)"/>
<path d="M39.7121 34.8862C39.0412 34.2153 33.0898 27.1615 31.7441 25.6471C29.2215 22.8146 26.0242 16.7455 22.2108 19.4485C20.2061 20.8687 21.2928 22.9284 21.8617 23.7562C22.4305 24.5839 29.8296 33.1247 30.5554 33.8466C31.2812 34.5723 37.4367 41.3516 37.2837 41.7125" fill="url(#paint6_linear_1044_8242)"/>
<path d="M40.4106 33.5913C41.1324 34.3877 41.7797 35.4195 41.5757 35.7529C43.9767 33.8227 38.9001 28.1498 36.0245 24.7445C33.8 22.1082 33.1919 18.7538 31.5991 16.957C31.5599 16.9806 31.5246 17.008 31.4853 17.0316C30.0887 18.0163 29.6728 19.9818 32.8192 24.16C34.8004 26.7963 36.4521 29.2248 40.4106 33.5913Z" fill="url(#paint7_linear_1044_8242)"/>
<path d="M30.5515 33.8502C31.2773 34.576 37.4327 41.3552 37.2797 41.7162C39.1825 39.1543 31.8069 31.6258 28.2368 27.8203C25.1414 24.5209 24.6118 21.6335 21.591 20.0132C20.4689 21.3706 21.3595 23.034 21.8577 23.7598C22.4266 24.5876 29.8296 33.1283 30.5515 33.8502Z" fill="url(#paint8_linear_1044_8242)"/>
<path d="M37.1423 41.8697C36.9265 42.0031 36.4832 42.0149 35.7966 41.6187C36.3066 42.0306 36.7774 42.1875 37.1423 41.8697Z" fill="url(#paint9_linear_1044_8242)"/>
<path d="M60.9562 24.7958C62.5372 24.5134 62.8158 24.6938 62.5333 24.4035C61.7644 24.1171 60.9405 24.019 60.5168 24.019C58.8612 24.019 54.6164 26.1415 54.6164 31.7281C54.6164 33.9015 53.9965 35.867 51.7681 35.867C50.8893 35.867 49.9752 35.3923 49.0925 34.6705C53 38.9977 56.064 34.9215 56.5309 32.1282C56.9977 29.3349 56.319 25.6275 60.9562 24.7958Z" fill="url(#paint10_radial_1044_8242)"/>
<path d="M31.0066 17.4556C30.0415 18.5501 30.0729 20.5117 32.8152 24.1603C34.8003 26.7966 36.448 29.2212 40.4104 33.5916C41.1597 34.4194 41.8345 35.5061 41.5481 35.7925C42.2112 31.2651 35.7654 26.8123 33.6704 23.3992C32.0109 20.6922 31.6814 19.0955 31.0066 17.4556Z" fill="url(#paint11_linear_1044_8242)"/>
<path d="M30.5515 33.8504C31.2773 34.5762 37.4327 41.3555 37.2797 41.7164C38.6372 40.7474 37.7113 39.237 35.6124 37.1381C31.3087 32.8343 25.318 27.0516 22.9092 22.2889C22.6816 21.8377 22.2579 21.5042 21.7597 21.4415C20.4611 21.2728 21.4262 23.1284 21.8617 23.76C22.4266 24.5878 29.8296 33.1286 30.5515 33.8504Z" fill="url(#paint12_linear_1044_8242)"/>
<path d="M20.5121 34.7329C22.8033 37.2947 25.4396 39.9075 27.9622 42.4184C29.9356 44.38 34.4041 48.5267 33.9137 49.0171C36.6834 46.6868 23.8194 38.2637 18.5898 30.0996C18.2485 31.3903 19.1233 33.1754 20.5121 34.7329Z" fill="url(#paint13_linear_1044_8242)"/>
<path d="M33.3487 49.4802C33.6115 49.3782 33.7488 49.2566 33.792 49.1232C33.3173 49.488 32.6935 49.3586 31.4577 48.264C30.112 47.0753 26.9304 43.6857 24.8589 42.0262C23.9487 41.3004 23.0896 40.8963 22.3049 40.8257C23.427 41.5279 22.9052 41.779 25.4003 43.6935C26.742 44.7214 31.6382 50.1511 33.3487 49.4802Z" fill="url(#paint14_linear_1044_8242)"/>
<path d="M30.0886 37.0596C31.905 39.2723 35.4516 42.9248 37.0444 41.9165C36.605 42.0656 35.6046 41.8224 33.9725 40.0452C32.368 38.2993 28.0721 33.2816 25.5377 31.0062C23.4859 29.1623 21.8029 28.2011 20.3591 28.5346C24.5608 29.9155 28.3663 34.9686 30.0886 37.0596Z" fill="url(#paint15_linear_1044_8242)"/>
<path d="M32.0542 27.5379C34.9534 30.6921 39.2571 36.9496 41.4384 35.855C41.0814 35.9648 40.3125 35.4901 39.7122 34.886C39.0413 34.2151 33.0899 27.1613 31.7442 25.6469C29.9945 23.6853 27.927 20.1702 25.5496 19.0952C27.9466 20.9862 29.7042 24.9839 32.0542 27.5379Z" fill="url(#paint16_linear_1044_8242)"/>
<path d="M49.0924 34.6742C49.0963 34.6742 49.0963 34.6742 49.0924 34.6742C47.7389 33.5679 46.4678 31.877 45.5576 30.4372C44.059 28.0558 37.8996 20.3978 36.4009 18.2244C35.9419 17.5613 35.4398 17.1023 34.918 16.812C35.6163 17.8163 36.0125 19.2483 37.5936 21.0216C40.1279 23.8659 43.443 28.9895 44.5807 30.751C45.7145 32.5047 47.5506 36.216 49.0924 34.6742Z" fill="url(#paint17_linear_1044_8242)"/>
<path d="M57.3938 59.9313C56.4523 57.6402 55.0752 56.2435 53.0862 57.5539C47.6604 61.1279 41.4187 59.9196 33.5919 53.5954C26.6126 47.95 23.0033 43.9169 19.6058 42.4575C18.7898 44.3132 22.148 47.2909 22.9405 48.0833C24.2077 49.3505 29.4098 54.1564 31.0144 55.2784C33.7567 57.193 39.2413 64.8 46.4874 64.8C50.54 64.7961 54.4397 62.7599 57.3938 59.9313Z" fill="url(#paint18_linear_1044_8242)"/>
<path d="M60.8776 35.4038C60.9796 30.849 64.2947 28.6755 64.2947 26.4001C64.2947 25.7292 63.9455 25.2388 63.4512 24.8818C64.0554 26.6551 62.6156 28.2283 60.4657 30.9039C58.1353 33.8031 57.6214 38.303 59.222 42.8068C60.8266 47.3106 58.8062 53.521 55.546 55.4865C52.2859 57.452 47.9547 66.0948 35.5535 56.33C35.5496 56.3261 35.5496 56.3261 35.5457 56.3221C34.7885 55.6199 34.0392 54.9961 33.282 54.5253C28.0446 51.2809 25.059 48.362 22.8032 45.91C22.3599 45.4275 21.1673 43.5797 19.7471 44.1878C20.4572 45.7963 22.3677 47.5107 22.9405 48.0835C24.2077 49.3507 29.4098 54.1565 31.0144 55.2786C31.2223 55.4237 31.4499 55.6042 31.6892 55.8121C31.752 55.867 31.8147 55.922 31.8775 55.9769C31.8932 55.9926 31.9128 56.0083 31.9285 56.02C31.9678 56.0554 32.0109 56.0946 32.0501 56.1299C32.058 56.1377 32.0698 56.1456 32.0776 56.1574C33.7057 57.6364 35.9458 60.0844 38.6921 61.995C38.6921 61.995 38.696 61.995 38.696 61.999C38.9353 62.1677 39.1825 62.3324 39.4296 62.4894C39.4335 62.4933 39.4375 62.4933 39.4414 62.4972C39.6886 62.6541 39.9396 62.8071 40.1907 62.9523C40.1946 62.9523 40.1946 62.9562 40.1986 62.9562C42.0974 64.0469 44.2041 64.8001 46.4796 64.8001C54.8634 64.8001 62.6273 56.0554 62.6273 49.637C62.6273 43.2187 60.756 40.7864 60.8776 35.4038Z" fill="url(#paint19_radial_1044_8242)"/>
<defs>
<linearGradient id="paint0_linear_1044_8242" x1="58.5634" y1="66.4568" x2="51.6549" y2="50.2711" gradientUnits="userSpaceOnUse">
<stop offset="0.00132565" stop-color="#FFCB4B"/>
<stop offset="1" stop-color="#FFD748"/>
</linearGradient>
<linearGradient id="paint1_linear_1044_8242" x1="59.9383" y1="55.1994" x2="45.4482" y2="37.9149" gradientUnits="userSpaceOnUse">
<stop offset="0.00132565" stop-color="#FFCB4B"/>
<stop offset="1" stop-color="#FFD748"/>
</linearGradient>
<linearGradient id="paint2_linear_1044_8242" x1="21.2078" y1="43.6916" x2="29.7465" y2="49.9793" gradientUnits="userSpaceOnUse">
<stop offset="0.00132565" stop-color="#FFCB4B"/>
<stop offset="1" stop-color="#FFD748"/>
</linearGradient>
<linearGradient id="paint3_linear_1044_8242" x1="18.0989" y1="27.0501" x2="33.0805" y2="42.7304" gradientUnits="userSpaceOnUse">
<stop offset="0.00132565" stop-color="#FFCB4B"/>
<stop offset="1" stop-color="#FFD748"/>
</linearGradient>
<linearGradient id="paint4_linear_1044_8242" x1="29.5997" y1="36.3611" x2="24.6473" y2="41.0264" gradientUnits="userSpaceOnUse">
<stop stop-color="#FFBC47" stop-opacity="0"/>
<stop offset="1" stop-color="#FFA754"/>
</linearGradient>
<linearGradient id="paint5_linear_1044_8242" x1="34.2806" y1="19.6521" x2="42.9746" y2="33.3141" gradientUnits="userSpaceOnUse">
<stop offset="0.00132565" stop-color="#FFCB4B"/>
<stop offset="1" stop-color="#FFD748"/>
</linearGradient>
<linearGradient id="paint6_linear_1044_8242" x1="25.306" y1="21.9217" x2="37.105" y2="37.8607" gradientUnits="userSpaceOnUse">
<stop offset="0.00132565" stop-color="#FFCB4B"/>
<stop offset="1" stop-color="#FFD748"/>
</linearGradient>
<linearGradient id="paint7_linear_1044_8242" x1="39.3388" y1="23.8447" x2="31.8867" y2="30.5723" gradientUnits="userSpaceOnUse">
<stop stop-color="#FFBC47" stop-opacity="0"/>
<stop offset="1" stop-color="#FFA754"/>
</linearGradient>
<linearGradient id="paint8_linear_1044_8242" x1="32.4839" y1="28.6377" x2="22.2374" y2="36.1285" gradientUnits="userSpaceOnUse">
<stop stop-color="#FFBC47" stop-opacity="0"/>
<stop offset="1" stop-color="#FFA754"/>
</linearGradient>
<linearGradient id="paint9_linear_1044_8242" x1="40.1168" y1="39.0792" x2="29.8702" y2="46.57" gradientUnits="userSpaceOnUse">
<stop stop-color="#FFBC47" stop-opacity="0"/>
<stop offset="1" stop-color="#FFA754"/>
</linearGradient>
<radialGradient id="paint10_radial_1044_8242" cx="0" cy="0" r="1" gradientUnits="userSpaceOnUse" gradientTransform="translate(53.5621 26.9178) scale(12.3013 12.3013)">
<stop stop-color="#FFBC47" stop-opacity="0"/>
<stop offset="1" stop-color="#FFA754"/>
</radialGradient>
<linearGradient id="paint11_linear_1044_8242" x1="40.7023" y1="22.5238" x2="34.3371" y2="28.4233" gradientUnits="userSpaceOnUse">
<stop offset="0.3118" stop-color="#FFBC47" stop-opacity="0"/>
<stop offset="1" stop-color="#FF8900"/>
</linearGradient>
<linearGradient id="paint12_linear_1044_8242" x1="35.8281" y1="25.7213" x2="27.4446" y2="33.2768" gradientUnits="userSpaceOnUse">
<stop offset="0.3118" stop-color="#FFBC47" stop-opacity="0"/>
<stop offset="1" stop-color="#FF8900"/>
</linearGradient>
<linearGradient id="paint13_linear_1044_8242" x1="32.9949" y1="33.8932" x2="22.6449" y2="42.5872" gradientUnits="userSpaceOnUse">
<stop offset="0.3118" stop-color="#FFBC47" stop-opacity="0"/>
<stop offset="1" stop-color="#FF8900"/>
</linearGradient>
<linearGradient id="paint14_linear_1044_8242" x1="21.7013" y1="40.209" x2="33.7333" y2="49.9898" gradientUnits="userSpaceOnUse">
<stop stop-color="#FFBC47" stop-opacity="0"/>
<stop offset="1" stop-color="#FFBC47"/>
</linearGradient>
<linearGradient id="paint15_linear_1044_8242" x1="24.0044" y1="28.0857" x2="33.397" y2="42.3687" gradientUnits="userSpaceOnUse">
<stop stop-color="#FFBC47" stop-opacity="0"/>
<stop offset="1" stop-color="#FFBC47"/>
</linearGradient>
<linearGradient id="paint16_linear_1044_8242" x1="31.3617" y1="29.1058" x2="34.0009" y2="27.0875" gradientUnits="userSpaceOnUse">
<stop stop-color="#FFBC47" stop-opacity="0"/>
<stop offset="1" stop-color="#FFA754"/>
</linearGradient>
<linearGradient id="paint17_linear_1044_8242" x1="44.3855" y1="37.0796" x2="40.8665" y2="20.3126" gradientUnits="userSpaceOnUse">
<stop stop-color="#FFBC47" stop-opacity="0"/>
<stop offset="1" stop-color="#FFBC47"/>
</linearGradient>
<linearGradient id="paint18_linear_1044_8242" x1="36.3523" y1="53.1714" x2="31.0738" y2="58.023" gradientUnits="userSpaceOnUse">
<stop offset="0.3118" stop-color="#FFBC47" stop-opacity="0"/>
<stop offset="1" stop-color="#FF8900"/>
</linearGradient>
<radialGradient id="paint19_radial_1044_8242" cx="0" cy="0" r="1" gradientUnits="userSpaceOnUse" gradientTransform="translate(39.8484 37.1375) rotate(48.14) scale(35.656 32.3645)">
<stop offset="0.6134" stop-color="#FFBC47" stop-opacity="0"/>
<stop offset="1" stop-color="#FF8900"/>
</radialGradient>
</defs>
</svg>
